<svg width="86" height="86" viewBox="0 0 86 86" fill="none" xmlns="http://www.w3.org/2000/svg">
<g clip-path="url(#clip0)" filter="url(#filter0_d)">
<path d="M43.4933 73.0043C61.4437 73.0043 75.9954 58.4526 75.9954 40.5021C75.9954 22.5517 61.4437 8 43.4933 8C25.5428 8 10.9911 22.5517 10.9911 40.5021C10.9911 58.4526 25.5428 73.0043 43.4933 73.0043Z" fill="#FFEDCF"/>
<path d="M26.4163 57.5778C14.7244 45.8856 13.803 27.502 23.6517 14.7548C22.5607 15.5975 21.511 16.5189 20.5103 17.5196C7.81765 30.2122 7.81765 50.7912 20.5103 63.4837C33.203 76.1763 53.7819 76.1764 66.4745 63.4837C67.475 62.4832 68.3964 61.4333 69.2393 60.3424C56.4922 70.1911 38.1085 69.2698 26.4163 57.5778Z" fill="#FFDCA3" fill-opacity="0.26"/>
<path d="M62.0792 51.281C61.0016 51.281 60.5188 50.8674 59.788 50.2415C58.9488 49.5226 57.9043 48.6278 55.8842 48.6278C53.8643 48.6278 52.8199 49.5226 51.9804 50.2415C51.2496 50.8674 50.7667 51.281 49.6892 51.281C48.6114 51.281 48.1287 50.8674 47.3979 50.2415C46.5585 49.5226 45.5138 48.6278 43.4939 48.6278C41.474 48.6278 40.4296 49.5226 39.5901 50.2415C38.8593 50.8674 38.3764 51.281 37.2987 51.281C36.2207 51.281 35.738 50.8673 35.0068 50.2415C34.1675 49.5226 33.1228 48.6278 31.1029 48.6278C29.083 48.6278 28.0383 49.5226 27.1989 50.2415C26.4679 50.8674 25.985 51.281 24.9071 51.281C24.2733 51.281 23.7598 51.7264 23.7598 52.276C23.7598 52.8254 24.2733 53.271 24.9071 53.271C26.927 53.271 27.9717 52.3762 28.811 51.6573C29.5421 51.0313 30.025 50.6178 31.1029 50.6178C32.1809 50.6178 32.6636 51.0314 33.3948 51.6573C34.2341 52.3762 35.2788 53.271 37.2987 53.271C39.3185 53.271 40.3631 52.3762 41.2025 51.6573C41.9333 51.0313 42.4162 50.6178 43.4939 50.6178C44.5717 50.6178 45.0545 51.0313 45.7853 51.6573C46.6246 52.3762 47.6693 53.271 49.6892 53.271C51.7089 53.271 52.7536 52.3762 53.593 51.6573C54.3237 51.0313 54.8067 50.6178 55.8843 50.6178C56.962 50.6178 57.4448 51.0313 58.1757 51.6573C59.0149 52.3762 60.0595 53.271 62.0794 53.271C62.7132 53.271 63.2267 52.8255 63.2267 52.276C63.2265 51.7264 62.7129 51.281 62.0792 51.281Z" fill="#707080"/>
<path d="M55.4007 37.3942C53.9531 37.3942 52.7796 36.2207 52.7796 34.7731V32.6762C52.7796 31.2286 53.9531 30.0551 55.4007 30.0551C56.8483 30.0551 58.0218 31.2286 58.0218 32.6762V34.7731C58.0218 36.2207 56.8483 37.3942 55.4007 37.3942Z" fill="#707080"/>
<path d="M55.4008 30.0551C55.2213 30.0551 55.0461 30.0735 54.8766 30.1079V33.7246C54.8766 34.5932 55.5807 35.2973 56.4493 35.2973C57.3178 35.2973 58.0219 34.5932 58.0219 33.7246V32.6762C58.0219 31.2284 56.8484 30.0551 55.4008 30.0551Z" fill="#78788B"/>
<path d="M32.1849 37.3942C30.7373 37.3942 29.5638 36.2207 29.5638 34.7731V32.6762C29.5638 31.2286 30.7373 30.0551 32.1849 30.0551C33.6325 30.0551 34.806 31.2286 34.806 32.6762V34.7731C34.806 36.2207 33.6325 37.3942 32.1849 37.3942Z" fill="#707080"/>
<path d="M32.185 30.0551C32.0055 30.0551 31.8303 30.0735 31.6608 30.1079V33.7246C31.6608 34.5932 32.3649 35.2973 33.2334 35.2973C34.102 35.2973 34.8061 34.5932 34.8061 33.7246V32.6762C34.8061 31.2284 33.6326 30.0551 32.185 30.0551Z" fill="#78788B"/>
</g>
<defs>
<filter id="filter0_d" x="0.991119" y="0" width="85.0044" height="85.0044" filterUnits="userSpaceOnUse" color-interpolation-filters="sRGB">
<feFlood flood-opacity="0" result="BackgroundImageFix"/>
<feColorMatrix in="SourceAlpha" type="matrix" values="0 0 0 0 0 0 0 0 0 0 0 0 0 0 0 0 0 0 127 0"/>
<feOffset dy="2"/>
<feGaussianBlur stdDeviation="5"/>
<feColorMatrix type="matrix" values="0 0 0 0 0.4 0 0 0 0 0.4 0 0 0 0 0.4 0 0 0 0.04 0"/>
<feBlend mode="normal" in2="BackgroundImageFix" result="effect1_dropShadow"/>
<feBlend mode="normal" in="SourceGraphic" in2="effect1_dropShadow" result="shape"/>
</filter>
<clipPath id="clip0">
<rect width="65.0044" height="65.0044" fill="white" transform="translate(10.9911 8)"/>
</clipPath>
</defs>
</svg>
