<svg width="16" height="16" viewBox="0 0 16 16" fill="none" xmlns="http://www.w3.org/2000/svg">
<path opacity="0.4" d="M8 1.65997C3.58167 1.65997 7.17073e-06 5.24163 7.17073e-06 9.65995C-0.00188977 11.0732 0.372608 12.4615 1.08501 13.6822C1.24084 13.9494 1.53778 14.1044 1.84723 14.1044H14.1528C14.4622 14.1044 14.7592 13.9494 14.915 13.6822C15.6274 12.4615 16.0019 11.0732 16 9.65995C16 5.24163 12.4183 1.65997 8 1.65997ZM10.8547 4.98191L9.15111 10.093C9.46997 10.3591 9.68343 10.7303 9.75309 11.1397C9.82274 11.5492 9.74403 11.97 9.53111 12.3266H6.46889C6.3144 12.0665 6.22959 11.7709 6.22266 11.4685C6.21573 11.166 6.2869 10.8669 6.42932 10.5999C6.57173 10.333 6.78056 10.1073 7.03565 9.94466C7.29074 9.782 7.58347 9.68786 7.88556 9.67134L9.58944 4.56024C9.64684 4.39436 9.76734 4.2578 9.92479 4.18022C10.0822 4.10263 10.2639 4.09027 10.4304 4.14582C10.597 4.20138 10.7348 4.32035 10.8142 4.47694C10.8935 4.63352 10.9079 4.81507 10.8542 4.98218L10.8547 4.98191Z" fill="black"/>
<path d="M7.88609 9.67135L9.58997 4.56026C9.64736 4.39437 9.76786 4.25782 9.92531 4.18023C10.0828 4.10265 10.2645 4.09029 10.431 4.14584C10.5975 4.20139 10.7354 4.32037 10.8147 4.47695C10.894 4.63354 10.9084 4.81509 10.8547 4.9822L9.15108 10.0933C9.46987 10.3594 9.68328 10.7305 9.75294 11.1399C9.82259 11.5493 9.74393 11.9701 9.53108 12.3266H6.46887C6.31438 12.0665 6.22957 11.7709 6.22264 11.4685C6.21571 11.166 6.28688 10.8669 6.42929 10.6C6.57171 10.333 6.78054 10.1073 7.03563 9.94468C7.29072 9.78201 7.58344 9.68787 7.88553 9.67135H7.88609Z" fill="black"/>
</svg>
