<svg width="86" height="86" viewBox="0 0 86 86" fill="none" xmlns="http://www.w3.org/2000/svg">
<g clip-path="url(#clip0)" filter="url(#filter0_d)">
<path d="M43.4803 73.0044C61.4308 73.0044 75.9825 58.4527 75.9825 40.5022C75.9825 22.5517 61.4308 8 43.4803 8C25.5298 8 10.9781 22.5517 10.9781 40.5022C10.9781 58.4527 25.5298 73.0044 43.4803 73.0044Z" fill="#FFEDCF"/>
<path d="M66.5489 45.4141C66.1629 44.9063 65.5657 44.6057 64.9319 44.6057H21.9477C21.3098 44.6057 20.7126 44.9022 20.3307 45.4101C19.9407 45.922 19.8188 46.5761 19.9894 47.1896C22.9268 57.6268 32.5719 64.9195 43.4357 64.9195C54.2996 64.9195 63.9446 57.6268 66.882 47.1896C67.0567 46.5761 66.9348 45.922 66.5489 45.4141Z" fill="#FAFAFA"/>
<path d="M24.3599 31.1174C24.1555 31.8363 24.5728 32.5853 25.2917 32.7897C26.0126 32.9939 26.7596 32.5768 26.9641 31.8579C27.4628 30.1021 29.0131 28.9089 30.8172 28.884C32.6215 28.861 34.2 30.016 34.7434 31.7586C34.9661 32.4721 35.7271 32.8699 36.4387 32.6475C37.1522 32.4248 37.5523 31.6656 37.3276 30.9523C36.4237 28.0567 33.7937 26.1384 30.7816 26.1766C27.7817 26.2132 25.1921 28.1929 24.3599 31.1174Z" fill="#707080"/>
<path d="M49.1252 31.8837C48.9208 32.6026 49.3381 33.3516 50.057 33.5561C50.7779 33.7602 51.5249 33.3431 51.7294 32.6242C52.2281 30.8684 53.7783 29.6753 55.5825 29.6503C57.3868 29.6274 58.9653 30.7824 59.5087 32.5249C59.7313 33.2385 60.4924 33.6363 61.2039 33.4139C61.9175 33.1912 62.3175 32.4319 62.0929 31.7186C61.189 28.8231 58.559 26.9048 55.5469 26.9429C52.547 26.9796 49.9574 28.9593 49.1252 31.8837Z" fill="#707080"/>
</g>
<defs>
<filter id="filter0_d" x="0.978081" y="0" width="85.0044" height="85.0044" filterUnits="userSpaceOnUse" color-interpolation-filters="sRGB">
<feFlood flood-opacity="0" result="BackgroundImageFix"/>
<feColorMatrix in="SourceAlpha" type="matrix" values="0 0 0 0 0 0 0 0 0 0 0 0 0 0 0 0 0 0 127 0"/>
<feOffset dy="2"/>
<feGaussianBlur stdDeviation="5"/>
<feColorMatrix type="matrix" values="0 0 0 0 0.4 0 0 0 0 0.4 0 0 0 0 0.4 0 0 0 0.04 0"/>
<feBlend mode="normal" in2="BackgroundImageFix" result="effect1_dropShadow"/>
<feBlend mode="normal" in="SourceGraphic" in2="effect1_dropShadow" result="shape"/>
</filter>
<clipPath id="clip0">
<rect width="65.0044" height="65.0044" fill="white" transform="translate(10.9781 8)"/>
</clipPath>
</defs>
</svg>
