<svg width="86" height="86" viewBox="0 0 86 86" fill="none" xmlns="http://www.w3.org/2000/svg">
<g clip-path="url(#clip0)" filter="url(#filter0_d)">
<path d="M42.5331 73.0044C60.4836 73.0044 75.0353 58.4527 75.0353 40.5022C75.0353 22.5517 60.4836 8 42.5331 8C24.5826 8 10.0309 22.5517 10.0309 40.5022C10.0309 58.4527 24.5826 73.0044 42.5331 73.0044Z" fill="#FFEDCF"/>
<path d="M47.2512 68.2864C29.3008 68.2864 14.749 53.7347 14.749 35.7842C14.749 28.0107 17.4814 20.8775 22.0336 15.2846C14.7112 21.2442 10.031 30.3253 10.031 40.5023C10.031 58.4527 24.5827 73.0045 42.5332 73.0045C52.7103 73.0045 61.7914 68.3242 67.7511 61.0018C62.1581 65.554 55.0248 68.2864 47.2512 68.2864Z" fill="#FFDCA3" fill-opacity="0.47"/>
<path d="M42.5257 48.6011C36.6089 48.6011 30.9611 47.9648 25.7795 46.8144C25.1084 46.6653 24.53 47.3149 24.7369 47.9917C27.1265 55.8061 34.1798 61.4749 42.5255 61.4749C50.8712 61.4749 57.9246 55.8061 60.3141 47.9917C60.5211 47.3147 59.9428 46.6653 59.2715 46.8144C54.0902 47.9648 48.4424 48.6011 42.5257 48.6011Z" fill="#848496"/>
<path d="M42.5356 53.0837C48.0253 53.0837 53.4404 52.5643 58.769 51.6345C59.3954 50.4856 59.9231 49.2713 60.3143 47.9919C60.5213 47.315 59.9429 46.6656 59.2717 46.8145C54.0902 47.9648 48.4424 48.6012 42.5257 48.6012C36.6089 48.6012 30.961 47.9649 25.7795 46.8145C25.1084 46.6656 24.53 47.315 24.7369 47.9919C25.1277 49.2699 25.6547 50.483 26.2803 51.6309C31.6158 52.5632 37.0384 53.0837 42.5356 53.0837Z" fill="#707080" fill-opacity="0.54"/>
<path d="M32.9722 39.4245C34.7543 37.1839 38.9738 31.1684 36.5673 27.0794C35.6371 25.4987 33.8065 24.5968 31.9843 24.805C30.5043 24.9741 29.3168 25.7516 28.5718 26.8214C28.2663 27.2599 27.713 27.4411 27.2075 27.2683C25.9739 26.8468 24.5565 26.9225 23.2633 27.6618C21.6709 28.5721 20.7289 30.3822 20.9141 32.2069C21.3932 36.9272 28.354 39.2805 31.1165 40.0325C31.7999 40.2184 32.5312 39.9789 32.9722 39.4245Z" fill="#FFBFCB"/>
<path d="M52.094 39.4245C50.3119 37.1839 46.0924 31.1684 48.4989 27.0794C49.4291 25.4987 51.2596 24.5968 53.0819 24.805C54.5619 24.9741 55.7494 25.7516 56.4944 26.8214C56.7999 27.2599 57.3532 27.4411 57.8587 27.2683C59.0923 26.8468 60.5097 26.9225 61.8029 27.6618C63.3953 28.5721 64.3373 30.3822 64.1521 32.2069C63.6729 36.9272 56.7121 39.2805 53.9497 40.0325C53.2663 40.2184 52.535 39.9789 52.094 39.4245Z" fill="#E6646E"/>
<path d="M33.8864 37.2946C31.124 36.5426 24.1632 34.1893 23.684 29.469C23.6092 28.7325 23.7258 28.0015 23.9869 27.328C23.7431 27.4201 23.5007 27.5259 23.2633 27.6618C21.6709 28.572 20.7289 30.3822 20.9141 32.2069C21.3932 36.9272 28.3541 39.2806 31.1165 40.0326C31.7999 40.2186 32.5312 39.9791 32.9722 39.4247C33.382 38.9095 33.9218 38.1881 34.4793 37.3427C34.2827 37.3571 34.0833 37.3482 33.8864 37.2946Z" fill="#FF8BA0" fill-opacity="0.27"/>
<path d="M52.094 39.4245C50.3119 37.1839 46.0924 31.1684 48.4989 27.0794C49.4291 25.4987 51.2596 24.5968 53.0819 24.805C54.5619 24.9741 55.7494 25.7516 56.4944 26.8214C56.7999 27.2599 57.3532 27.4411 57.8587 27.2683C59.0923 26.8468 60.5097 26.9225 61.8029 27.6618C63.3953 28.5721 64.3373 30.3822 64.1521 32.2069C63.6729 36.9272 56.7121 39.2805 53.9497 40.0325C53.2663 40.2184 52.535 39.9789 52.094 39.4245Z" fill="#FFBFCB"/>
<path d="M55.6149 38.7836C53.8328 36.543 49.6133 30.5274 52.0198 26.4385C52.3918 25.8063 52.9117 25.2892 53.5136 24.9017C53.3682 24.872 53.2336 24.8223 53.0819 24.805C51.2596 24.5968 49.4291 25.4987 48.4989 27.0794C46.0924 31.1684 50.3119 37.184 52.094 39.4245C52.535 39.9788 53.2663 40.2184 53.9497 40.0324C54.5609 39.8661 55.3829 39.6161 56.2894 39.2847C56.0335 39.171 55.7962 39.0116 55.6149 38.7836Z" fill="#FF8BA0" fill-opacity="0.27"/>
</g>
<defs>
<filter id="filter0_d" x="0.0308838" y="0" width="85.0044" height="85.0044" filterUnits="userSpaceOnUse" color-interpolation-filters="sRGB">
<feFlood flood-opacity="0" result="BackgroundImageFix"/>
<feColorMatrix in="SourceAlpha" type="matrix" values="0 0 0 0 0 0 0 0 0 0 0 0 0 0 0 0 0 0 127 0"/>
<feOffset dy="2"/>
<feGaussianBlur stdDeviation="5"/>
<feColorMatrix type="matrix" values="0 0 0 0 0.4 0 0 0 0 0.4 0 0 0 0 0.4 0 0 0 0.04 0"/>
<feBlend mode="normal" in2="BackgroundImageFix" result="effect1_dropShadow"/>
<feBlend mode="normal" in="SourceGraphic" in2="effect1_dropShadow" result="shape"/>
</filter>
<clipPath id="clip0">
<rect width="65.0044" height="65.0044" fill="white" transform="translate(10.0309 8)"/>
</clipPath>
</defs>
</svg>
