<svg width="93" height="94" viewBox="0 0 93 94" fill="none" xmlns="http://www.w3.org/2000/svg">
<path d="M20.3217 13.7513C20.3217 29.9086 42.8015 42.5402 46.0736 44.2228C46.3417 44.3606 46.6579 44.3606 46.926 44.2228C50.1981 42.5404 72.6781 30.4813 72.6781 13.7513C72.6783 13.7515 72.6785 13.7517 72.6787 13.7517C72.6536 13.479 72.6227 13.2055 72.5851 12.9308C70.2659 -4.02204 49.736 -2.34732 46.4999 7.97949C43.2636 -2.34732 22.7339 -4.02204 20.4147 12.9308C20.3771 13.2057 20.3462 13.4794 20.3212 13.752C20.3213 13.7517 20.3215 13.7515 20.3217 13.7513Z" fill="#FFBFCB"/>
<path d="M46.0738 42.588C42.8017 40.9057 21.7563 29.4998 20.3219 13.7513C18.7173 31.2237 42.5621 44.157 46.0716 45.9618C46.3412 46.1004 46.6589 46.1004 46.9286 45.9618C50.4381 44.157 74.2829 31.2237 72.6783 13.7513C71.2437 29.4998 50.1985 40.9055 46.9262 42.588C46.6581 42.7259 46.3417 42.7259 46.0738 42.588Z" fill="#FFB4C1"/>
<path d="M12.4665 32.1421L14.4764 46.688C14.6235 47.2115 15.1824 47.4967 15.695 47.3156C16.4297 47.0562 19.6718 45.4743 19.6718 45.4743V34.4578C19.6718 32.2614 17.8914 30.481 15.6952 30.481C14.363 30.481 13.1849 31.1365 12.4632 32.1421C12.4641 32.1422 12.4654 32.1421 12.4665 32.1421Z" fill="#EDBCA4"/>
<path d="M15.5466 53.4957L15.5478 53.4973C15.2205 52.0015 15.705 50.3793 16.9492 49.3152C17.7399 48.639 18.706 48.3013 19.6716 48.2868V34.4581C19.6716 32.2617 17.8912 30.4814 15.695 30.4814C13.4988 30.4814 11.7183 32.2619 11.7183 34.4581V39.8746L15.5466 53.4957Z" fill="#FFEAE5"/>
<path d="M19.6718 45.4743C18.8822 45.4816 18.1046 45.62 17.3699 45.8796C16.8571 46.0607 16.2982 45.7755 16.1511 45.252L12.4663 32.1421C11.9973 32.7947 11.7181 33.5929 11.7181 34.4578V43.1586L15.3302 56.6456L19.6716 48.2865V45.4743H19.6718Z" fill="#F0C9C5" fill-opacity="0.39"/>
<path d="M41.5787 72.3626C40.8113 63.5196 31.0439 59.0371 31.0439 59.0371L22.9771 49.7605C21.431 47.9824 18.7401 47.7837 16.9495 49.3151C15.7053 50.3794 15.2208 52.0016 15.5482 53.4974L15.5469 53.4956L9.56838 32.2257C8.93536 29.9737 6.81398 28.5293 4.5531 28.6815C2.30912 29.4006 1.50699 31.3731 1.8621 32.9364L6.52826 53.4885C7.27099 56.7597 8.56372 59.881 10.3512 62.7193L19.1145 76.6335C20.5812 78.9625 21.3596 81.6586 21.3596 84.411V91.6187L22.9943 93.188H37.3621C37.8798 93.188 38.2995 92.7683 38.2995 92.2506V86.7936C38.2995 84.6791 38.8089 82.5958 39.7939 80.7248C40.7966 78.8201 41.8828 75.8682 41.5787 72.3626Z" fill="#FFEAE5"/>
<path d="M18.5358 52.2212C17.7208 51.2589 17.4075 50.042 17.5613 48.8824C17.349 49.008 17.143 49.1495 16.9492 49.3151C15.1542 50.8503 14.9372 53.5477 16.4639 55.3501L24.1367 64.4091C25.6937 63.1981 25.9281 60.9336 24.6518 59.4296L18.5358 52.2212Z" fill="#FFDFDA" fill-opacity="0.65"/>
<path d="M19.6195 92.2508V86.0986C19.6195 83.3464 18.8412 80.6501 17.3744 78.3211L8.61116 64.4069C6.82345 61.5686 5.5309 58.4473 4.78817 55.1761L0.122009 34.6241C-0.469049 32.0208 1.14374 29.4264 3.73974 28.8043C4.01148 28.7393 4.28321 28.6997 4.55331 28.6815C3.58281 29.8131 3.14196 31.3731 3.49707 32.9364L8.16323 53.4885C8.90596 56.7597 10.1987 59.881 11.9862 62.7193L20.7495 76.6335C22.2162 78.9625 22.9945 81.6586 22.9945 84.411V93.1882H20.5571C20.0391 93.1882 19.6195 92.7685 19.6195 92.2508Z" fill="#FFDFDA"/>
<path d="M80.5332 32.1421L78.5234 46.688C78.3762 47.2115 77.8173 47.4967 77.3047 47.3156C76.57 47.0562 73.3281 45.4743 73.3281 45.4743V34.4578C73.3281 32.2614 75.1085 30.481 77.3047 30.481C78.6367 30.481 79.815 31.1365 80.5367 32.1421C80.5356 32.1422 80.5343 32.1421 80.5332 32.1421Z" fill="#EDBCA4"/>
<path d="M77.4532 53.4957L77.4518 53.4973C77.7791 52.0015 77.2946 50.3793 76.0504 49.3152C75.2597 48.639 74.2936 48.3013 73.328 48.2868V34.4581C73.328 32.2617 75.1084 30.4814 77.3046 30.4814C79.5009 30.4814 81.2813 32.2619 81.2813 34.4581V39.8746L77.4532 53.4957Z" fill="#FFEAE5"/>
<path d="M73.328 45.4743C74.1176 45.4816 74.8952 45.62 75.6299 45.8796C76.1427 46.0607 76.7016 45.7755 76.8487 45.252L80.5335 32.1421C81.0025 32.7947 81.2817 33.5929 81.2817 34.4578V43.1586L77.6696 56.6456L73.3282 48.2865V45.4743H73.328Z" fill="#F0C9C5" fill-opacity="0.44"/>
<path d="M51.4211 72.3626C52.1885 63.5196 61.9559 59.0371 61.9559 59.0371L70.0227 49.7605C71.569 47.9824 74.2597 47.7837 76.0503 49.3151C77.2945 50.3794 77.7789 52.0016 77.4516 53.4974L77.4531 53.4956L83.4312 32.2257C84.0643 29.9737 86.1856 28.5293 88.4465 28.6815C90.6905 29.4006 91.4926 31.3731 91.1375 32.9364L86.4714 53.4885C85.7286 56.7597 84.4359 59.881 82.6484 62.7193L73.8851 76.6335C72.4184 78.9625 71.64 81.6586 71.64 84.411V91.6187L70.0053 93.188H55.6375C55.1198 93.188 54.7001 92.7683 54.7001 92.2506V86.7936C54.7001 84.6791 54.1907 82.5958 53.2057 80.7248C52.2032 78.8201 51.1168 75.8682 51.4211 72.3626Z" fill="#FFEAE5"/>
<path d="M74.4639 52.2213C75.2789 51.259 75.5923 50.0422 75.4384 48.8826C75.6508 49.0081 75.8567 49.1496 76.0505 49.3152C77.8455 50.8505 78.0626 53.5478 76.5359 55.3502L68.863 64.4092C67.306 63.1982 67.0717 60.9337 68.3479 59.4297L74.4639 52.2213Z" fill="#FFDFDA" fill-opacity="0.72"/>
<path d="M73.3804 92.2507V86.0985C73.3804 83.3463 74.1588 80.65 75.6255 78.321L84.3887 64.4068C86.1764 61.5685 87.469 58.4472 88.2117 55.176L92.8779 34.6239C93.469 32.0207 91.8562 29.4263 89.2602 28.8042C88.9884 28.7392 88.7167 28.6996 88.4466 28.6814C89.4171 29.813 89.8579 31.3729 89.5028 32.9363L84.8367 53.4884C84.0939 56.7596 82.8014 59.8809 81.0137 62.7192L72.2504 76.6334C70.7837 78.9624 70.0054 81.6585 70.0054 84.4109V93.1881H72.4428C72.9606 93.1881 73.3804 92.7683 73.3804 92.2507Z" fill="#FFDFDA" fill-opacity="0.86"/>
</svg>
