<svg width="86" height="86" viewBox="0 0 86 86" fill="none" xmlns="http://www.w3.org/2000/svg">
<g clip-path="url(#clip0)" filter="url(#filter0_d)">
<path d="M43.467 73.0044C61.4174 73.0044 75.9692 58.4527 75.9692 40.5022C75.9692 22.5517 61.4174 8 43.467 8C25.5165 8 10.9648 22.5517 10.9648 40.5022C10.9648 58.4527 25.5165 73.0044 43.467 73.0044Z" fill="#FFEDCF"/>
<path d="M43.4669 56.4911C38.9568 56.4911 34.6769 54.7648 32.0179 51.8739C31.5275 51.3414 31.5623 50.5121 32.0947 50.0222C32.6272 49.5322 33.4575 49.5665 33.947 50.0995C36.1185 52.4607 39.6775 53.87 43.4669 53.87C47.2564 53.87 50.8154 52.4606 52.987 50.0995C53.4765 49.5665 54.3068 49.5322 54.8393 50.0222C55.3718 50.5121 55.4066 51.3414 54.9161 51.8739C52.257 54.7649 47.9771 56.4911 43.4669 56.4911Z" fill="#707080"/>
<path d="M32.4581 40.5022C31.0105 40.5022 29.837 39.3287 29.837 37.881V35.7842C29.837 34.3365 31.0105 33.163 32.4581 33.163C33.9057 33.163 35.0792 34.3365 35.0792 35.7842V37.881C35.0792 39.3287 33.9057 40.5022 32.4581 40.5022Z" fill="#707080"/>
<path d="M32.4581 33.163C32.2786 33.163 32.1034 33.1814 31.9339 33.2158V36.8326C31.9339 37.7011 32.638 38.4053 33.5066 38.4053C34.3751 38.4053 35.0792 37.7011 35.0792 36.8326V35.7842C35.0792 34.3364 33.9059 33.163 32.4581 33.163Z" fill="#78788B"/>
<path d="M54.4758 40.5022C53.0282 40.5022 51.8547 39.3287 51.8547 37.881V35.7842C51.8547 34.3365 53.0282 33.163 54.4758 33.163C55.9234 33.163 57.0969 34.3365 57.0969 35.7842V37.881C57.0969 39.3287 55.9234 40.5022 54.4758 40.5022Z" fill="#707080"/>
<path d="M54.4759 33.163C54.2963 33.163 54.1211 33.1814 53.9516 33.2158V36.8326C53.9516 37.7011 54.6558 38.4053 55.5243 38.4053C56.3928 38.4053 57.097 37.7011 57.097 36.8326V35.7842C57.097 34.3364 55.9235 33.163 54.4759 33.163Z" fill="#78788B"/>
<path d="M48.185 68.2864C30.2345 68.2864 15.6828 53.7347 15.6828 35.7842C15.6828 28.0107 18.4151 20.8775 22.9673 15.2845C15.645 21.2441 10.9648 30.3252 10.9648 40.5022C10.9648 58.4527 25.5165 73.0044 43.467 73.0044C53.6441 73.0044 62.7252 68.3241 68.6849 61.0017C63.0918 65.5539 55.9586 68.2864 48.185 68.2864Z" fill="#FFDCA3" fill-opacity="0.19"/>
</g>
<defs>
<filter id="filter0_d" x="0.96476" y="0" width="85.0044" height="85.0044" filterUnits="userSpaceOnUse" color-interpolation-filters="sRGB">
<feFlood flood-opacity="0" result="BackgroundImageFix"/>
<feColorMatrix in="SourceAlpha" type="matrix" values="0 0 0 0 0 0 0 0 0 0 0 0 0 0 0 0 0 0 127 0"/>
<feOffset dy="2"/>
<feGaussianBlur stdDeviation="5"/>
<feColorMatrix type="matrix" values="0 0 0 0 0.4 0 0 0 0 0.4 0 0 0 0 0.4 0 0 0 0.04 0"/>
<feBlend mode="normal" in2="BackgroundImageFix" result="effect1_dropShadow"/>
<feBlend mode="normal" in="SourceGraphic" in2="effect1_dropShadow" result="shape"/>
</filter>
<clipPath id="clip0">
<rect width="65.0044" height="65.0044" fill="white" transform="translate(10.9648 8)"/>
</clipPath>
</defs>
</svg>
