<svg width="16" height="16" viewBox="0 0 16 16" fill="none" xmlns="http://www.w3.org/2000/svg">
<g clip-path="url(#clip0)">
<path opacity="0.4" d="M3 11H1L0.5 13L3 15.5L5 15V13H3V11ZM15.5625 2.3206L15.5591 2.31716L13.6803 0.437478C13.3986 0.156692 13.0171 -0.000976562 12.6194 -0.000976562C12.2216 -0.000976563 11.8401 0.156692 11.5584 0.437478L10.1178 1.8781C10.0829 1.91294 10.0551 1.95434 10.0362 1.99992C10.0173 2.0455 10.0075 2.09437 10.0075 2.14373C10.0075 2.19308 10.0173 2.24195 10.0362 2.28753C10.0551 2.33312 10.0829 2.37451 10.1178 2.40935L13.5866 5.8781C13.6214 5.91306 13.6628 5.9408 13.7084 5.95972C13.754 5.97865 13.8028 5.98839 13.8522 5.98839C13.9015 5.98839 13.9504 5.97865 13.996 5.95972C14.0416 5.9408 14.083 5.91306 14.1178 5.8781L15.5584 4.43747C15.8395 4.15717 15.9977 3.77679 15.9985 3.37988C15.9993 2.98296 15.8424 2.60198 15.5625 2.3206Z" fill="black"/>
<path d="M0.0115627 15.1203C-0.0229498 15.3162 0.0217632 15.5178 0.135866 15.6807C0.249969 15.8436 0.424116 15.9546 0.62 15.9891C0.706122 16.0041 0.79419 16.0041 0.880312 15.9891L2.98406 15.4841L0.515312 13.0153L0.0115627 15.1203ZM12.8844 6.58687L9.41562 3.11811C9.3446 3.04754 9.24855 3.00793 9.14843 3.00793C9.04831 3.00793 8.95226 3.04754 8.88124 3.11811L1 11H3V13H5V15L12.8834 7.11718C12.9539 7.04698 12.9935 6.95167 12.9937 6.85222C12.9939 6.75277 12.9546 6.65732 12.8844 6.58687Z" fill="black"/>
</g>
<defs>
<clipPath id="clip0">
<rect width="16" height="16" fill="white"/>
</clipPath>
</defs>
</svg>
