<svg width="105" height="105" viewBox="0 0 105 105" fill="none" xmlns="http://www.w3.org/2000/svg">
<g clip-path="url(#clip0)">
<path d="M60.4991 25.3535C58.217 25.9899 55.8939 24.928 54.8206 22.9733C52.4137 18.5412 45.797 17.492 42.1517 21.0609C40.3709 22.7619 37.7861 22.7885 36.046 21.5886C31.9679 18.8519 25.7852 20.557 23.899 25.4309C23.0659 27.5936 20.8401 28.7906 18.5793 28.3685C16.2828 27.9062 13.5098 29.116 12.1588 30.652L40.0605 58.5542C41.8476 58.7025 43.6654 58.816 45.5059 58.8948L70.6208 33.3607C70.8804 28.2741 65.4998 23.9353 60.4991 25.3535Z" fill="#8FC197"/>
<path d="M56.0087 32.5446C61.3435 37.8794 69.7697 38.239 75.521 33.6232C76.1976 33.0802 76.2437 32.0648 75.6305 31.4514L57.1019 12.9228C56.4886 12.3095 55.473 12.3556 54.9301 13.0323C50.3143 18.7835 50.6738 27.2099 56.0087 32.5446Z" fill="#FF7C8B"/>
<path d="M57.1185 31.4349C52.0193 26.3357 52.0193 18.0384 57.1185 12.9392C55.8374 11.6581 53.703 11.8927 52.7231 13.4164C48.6862 19.6931 49.4113 28.1668 54.899 33.6542C60.3864 39.1416 68.8601 39.867 75.1368 35.8301C76.6605 34.8502 76.8951 32.7158 75.614 31.4347C70.5149 36.5339 62.2175 36.5339 57.1185 31.4349Z" fill="#FF5368"/>
<path d="M63.407 25.1464C65.0413 26.7807 67.6913 26.7809 69.3256 25.1464L63.407 19.2275C61.7725 20.8621 61.7725 23.5118 63.407 25.1464Z" fill="#FFA6B0"/>
<path d="M56.4998 21.0108C56.3992 21.8598 56.4082 22.7196 56.526 23.5665C56.6454 24.4249 57.4384 25.0239 58.2966 24.9044C58.6482 24.8555 58.9562 24.6938 59.1892 24.4606C59.5251 24.1246 59.7051 23.6406 59.6346 23.1336C59.5538 22.5525 59.5475 21.9624 59.6165 21.3794C59.7185 20.5186 59.103 19.7382 58.2424 19.6366C57.382 19.5349 56.6016 20.1501 56.4998 21.0108Z" fill="#FFEDCF"/>
<path d="M62.214 27.5737C61.9847 27.3966 61.7639 27.2022 61.5573 26.996C61.3493 26.788 61.1535 26.5654 60.975 26.3336C60.446 25.6471 59.4605 25.5195 58.7739 26.0486C58.0872 26.5768 57.9598 27.5631 58.4889 28.2497C58.7493 28.5875 59.0349 28.9125 59.3378 29.2153C59.6384 29.516 59.9608 29.7993 60.2953 30.0581C60.927 30.546 61.8131 30.4771 62.3631 29.9271C62.4103 29.88 62.4549 29.8292 62.4968 29.7751C63.0265 29.0892 62.8998 28.1034 62.214 27.5737Z" fill="#FFEDCF"/>
<path d="M39.235 54.7007C37.9137 53.7905 37.4071 52.0962 38.062 50.6134C39.5332 47.2671 37.3281 43.3629 33.9723 42.6989C32.5244 42.4316 31.2647 41.1391 31.2255 39.4156C31.1879 35.8449 27.4128 33.0891 24.0448 34.0913C22.5537 34.5276 20.8864 33.9034 20.0762 32.4588C18.312 29.2817 13.5258 28.766 11.1485 31.4117C10.0183 32.7021 8.27059 32.8465 6.59725 32.4783C3.1998 31.706 -0.223657 34.777 1.21751 38.0579C1.63249 39.026 2.4068 39.806 3.26703 40.2953C4.78721 41.1663 6.0478 42.3979 5.84062 44.1547C5.62388 46.0344 6.25276 47.9779 7.59459 49.3823C8.77779 50.5801 9.73898 50.8734 10.4877 51.1836C9.97013 50.8854 9.50904 50.5966 9.10584 50.3215C9.50904 50.5968 9.97033 50.8854 10.4877 51.1836C10.7889 51.3083 11.0558 51.4363 11.2888 51.6266C13.0316 52.5528 15.3432 53.5526 18.3852 54.5335C24.9209 56.6409 32.9536 58.0587 41.6447 58.6756C41.4036 57.0447 40.5074 55.551 39.235 54.7007Z" fill="#B5EBBE"/>
<path d="M39.4457 29.1761C31.3558 29.1761 24.7978 35.7342 24.7978 43.824C24.7978 46.6891 25.6235 49.36 27.0455 51.6177C33.9286 53.0432 41.7871 53.8612 49.9892 53.9865C52.5287 51.3524 54.0936 47.772 54.0936 43.824C54.0933 35.7342 47.5351 29.1761 39.4457 29.1761Z" fill="#FF7C8B"/>
<path d="M41.015 52.1941V35.4539C41.015 34.5871 40.3124 33.8845 39.4456 33.8845C38.5789 33.8845 37.8763 34.5871 37.8763 35.4539V52.1941C37.8763 52.638 38.0614 53.0379 38.3573 53.3233C39.003 53.3883 39.6536 53.4484 40.3081 53.5043C40.7337 53.224 41.015 52.742 41.015 52.1941Z" fill="#FFA6B0"/>
<path d="M39.4452 48.0083C41.7566 48.0083 43.6304 46.1345 43.6304 43.8231C43.6304 41.5117 41.7566 39.6379 39.4452 39.6379C37.1338 39.6379 35.26 41.5117 35.26 43.8231C35.26 46.1345 37.1338 48.0083 39.4452 48.0083Z" fill="#FFA6B0"/>
<path d="M39.4457 27.6068C30.5033 27.6068 23.2285 34.8817 23.2285 43.824C23.2285 46.4665 23.8677 48.9611 24.9938 51.1676C26.3836 51.4893 27.8178 51.7857 29.2921 52.0548C27.465 49.8054 26.3675 46.9408 26.3675 43.824C26.3675 36.6127 32.2346 30.7457 39.4459 30.7457C46.6572 30.7457 52.5243 36.6127 52.5243 43.824C52.5243 47.8932 50.6557 51.5336 47.7323 53.9341C49.1629 53.9784 50.6059 54.0018 52.0581 54.0032C54.3105 51.218 55.6633 47.6769 55.6633 43.824C55.6629 34.8817 48.3876 27.6068 39.4457 27.6068Z" fill="#FF5368"/>
<path d="M33.3006 36.0157C32.6291 36.5451 32.0274 37.1593 31.5121 37.8414C30.9896 38.5331 31.1265 39.5172 31.818 40.0396C32.1013 40.2535 32.4334 40.3571 32.7629 40.3571C33.2382 40.3571 33.7076 40.142 34.0164 39.7337C34.37 39.2655 34.7832 38.844 35.2441 38.4807C35.9247 37.9442 36.0415 36.957 35.5049 36.2766C34.968 35.5959 33.9813 35.4791 33.3006 36.0157Z" fill="#FFEDCF"/>
<path d="M35.238 49.1628C34.7777 48.7992 34.3652 48.3773 34.012 47.9085C33.4903 47.2165 32.5062 47.0783 31.814 47.6002C31.1219 48.122 30.9838 49.1059 31.5056 49.7982C32.0203 50.4809 32.6216 51.0959 33.2925 51.6259C33.5805 51.8534 33.9236 51.9639 34.2642 51.9639C34.728 51.9639 35.187 51.7591 35.4968 51.3671C36.0341 50.687 35.9183 49.7001 35.238 49.1628Z" fill="#FFEDCF"/>
<path d="M32.7006 44.6968C32.6636 44.4096 32.6449 44.1159 32.6449 43.824C32.6449 43.5299 32.664 43.2339 32.7016 42.9439C32.8129 42.0844 32.2064 41.2971 31.3468 41.1858C30.4878 41.0737 29.7001 41.681 29.5887 42.5407C29.5339 42.9636 29.5061 43.3952 29.5061 43.8238C29.5061 44.2489 29.5335 44.6773 29.5873 45.0968C29.6891 45.8886 30.3643 46.4664 31.142 46.4664C31.2087 46.4664 31.2761 46.462 31.3439 46.4534C32.2036 46.3429 32.8109 45.5566 32.7006 44.6968Z" fill="#FFEDCF"/>
<path d="M43.6532 38.4853C44.1135 38.8489 44.5261 39.2708 44.8793 39.7396C45.1876 40.1489 45.6579 40.3642 46.1338 40.3642C46.4627 40.3642 46.7944 40.261 47.0773 40.0477C47.7694 39.5259 47.9075 38.5419 47.3857 37.8497C46.8709 37.167 46.2697 36.5519 45.5988 36.022C44.9187 35.4847 43.9317 35.6003 43.3945 36.2806C42.8572 36.961 42.9728 37.9478 43.6532 38.4853Z" fill="#FFEDCF"/>
<path d="M47.073 47.6082C46.3812 47.0858 45.3973 47.2227 44.8748 47.9141C44.5212 48.3823 44.108 48.8038 43.6472 49.1672C42.9665 49.7036 42.8497 50.6908 43.3863 51.3713C43.6961 51.7641 44.1556 51.9691 44.6199 51.9691C44.9602 51.9691 45.3026 51.859 45.5906 51.6319C46.2622 51.1026 46.8638 50.4883 47.3792 49.8062C47.9016 49.115 47.7647 48.1306 47.073 47.6082Z" fill="#FFEDCF"/>
<path d="M49.304 42.5508C49.1935 41.6912 48.4063 41.0841 47.5473 41.1942C46.6877 41.3047 46.0802 42.0912 46.1907 42.9508C46.2276 43.238 46.2463 43.5317 46.2463 43.8236C46.2463 44.1177 46.2272 44.4137 46.1897 44.7037C46.0783 45.5632 46.6849 46.3505 47.5445 46.4618C47.6129 46.4705 47.6808 46.475 47.748 46.475C48.525 46.475 49.2 45.8981 49.3025 45.1069C49.3574 44.684 49.3852 44.2524 49.3852 43.8238C49.3852 43.3987 49.3578 42.9705 49.304 42.5508Z" fill="#FFEDCF"/>
<path d="M96.6688 25.2935C94.2661 25.8196 91.7565 25.6132 90.1335 23.7698C86.7202 19.9903 79.8475 20.7268 77.3143 25.2656C76.1506 27.3294 73.757 28.2211 71.6157 27.5977C66.7795 26.1655 61.3593 30.1026 61.3053 35.2037C61.249 37.6658 59.44 39.5122 57.361 39.8942C52.5423 40.8428 49.376 46.4202 51.4887 51.2005C52.429 53.3189 51.7014 55.7391 49.8042 57.0393C49.0571 57.5362 48.4016 58.1874 47.8625 58.9416C49.4851 58.9968 51.1235 59.0257 52.7739 59.0257C65.2384 59.0257 77.0511 57.4301 86.0357 54.533C87.239 54.145 89.4104 53.3108 90.3955 52.9224C91.5141 51.103 92.3835 52.3151 95.2366 49.4413C97.163 47.4354 98.0663 44.6587 97.7551 41.9734C97.4576 39.4638 99.2676 37.7044 101.451 36.4602C102.686 35.7613 103.798 34.6469 104.393 33.2641C106.463 28.5774 101.547 24.1901 96.6688 25.2935Z" fill="#B5EBBE"/>
<path d="M85.646 51.2489C85.1535 45.5401 80.3522 41.0437 74.5179 41.0437C68.3571 41.0437 63.3452 46.0558 63.3452 52.2163C63.3452 53.7024 63.6392 55.1206 64.1685 56.419C70.4928 55.6625 76.322 54.4603 81.2866 52.8594C82.9492 52.3232 84.3926 51.7815 85.646 51.2489Z" fill="#C5324F"/>
<path d="M79.4132 45.9388C79.4132 45.9244 79.4132 45.9097 79.4132 45.8953C79.4031 43.2338 77.2231 41.0541 74.5616 41.0437C74.5472 41.0437 74.5326 41.0437 74.5181 41.0437C68.3574 41.0437 63.3455 46.0558 63.3455 52.2163C63.3455 52.2308 63.3455 52.2454 63.3455 52.2598C63.352 53.9122 64.1952 55.3788 65.4702 56.2557C68.9822 55.7964 72.3291 55.1972 75.447 54.4672C77.8705 52.4164 79.4132 49.3551 79.4132 45.9388Z" fill="#FF5368"/>
<path d="M38.6087 16.0259C37.3879 14.8053 35.3904 14.8053 34.1698 16.0259C32.9492 17.2465 32.9492 19.2442 34.1698 20.4648L38.6087 24.9037C39.8294 26.1242 41.827 26.1242 43.0475 24.9037C44.2681 23.6831 44.2681 21.6856 43.0475 20.4648L38.6087 16.0259Z" fill="#FFA174"/>
<path d="M87.7834 31.974H81.5059C79.7795 31.974 78.367 33.3865 78.367 35.1129C78.367 36.8392 79.7795 38.2518 81.5059 38.2518H87.7834C89.5098 38.2518 90.9223 36.8392 90.9223 35.1129C90.9223 33.3865 89.5098 31.974 87.7834 31.974Z" fill="#FFA174"/>
<path d="M18.1016 38.8347L13.6628 43.2736C12.4422 44.4942 12.4422 46.4917 13.6628 47.7125C14.8833 48.9331 16.8809 48.9331 18.1016 47.7125L22.5405 43.2736C23.7613 42.053 23.7613 40.0555 22.5405 38.8347C21.3197 37.6142 19.3222 37.6142 18.1016 38.8347Z" fill="#FFA174"/>
<path d="M96.2599 51.0878H52.2129L23.3329 82.6462H23.3373C23.3373 82.7774 23.3396 82.9082 23.3442 83.0386C23.5423 88.5953 28.1715 92.9389 33.6603 92.9389H52.2131H70.7658C76.2546 92.9389 80.8838 88.5955 81.0819 83.0386C81.0866 82.9082 81.0888 82.7774 81.0888 82.6462H81.0933C91.7028 77.1921 99.4244 68.8167 102.188 59.0689C103.32 55.0725 100.364 51.0878 96.2599 51.0878Z" fill="#FFEDCF"/>
<path d="M64.4214 73.168C71.2442 64.1294 64.8825 51.0878 53.6508 51.0878H8.16599C4.07669 51.0878 1.10499 55.0499 2.22867 59.0332C4.98324 68.7972 12.7137 77.1856 23.3381 82.6462H45.4123C52.804 82.6462 59.8123 79.2172 64.329 73.2901C64.3599 73.2494 64.3908 73.2088 64.4214 73.168Z" fill="#FFF7EA"/>
</g>
<defs>
<clipPath id="clip0">
<rect width="104" height="104" fill="white" transform="translate(0.879303 0.524048)"/>
</clipPath>
</defs>
</svg>
