<svg width="93" height="105" viewBox="0 0 93 105" fill="none" xmlns="http://www.w3.org/2000/svg">
<path d="M79.7421 45.0779C85.1337 66.4328 71.3904 76.053 45.384 73.5158C19.3775 78.5902 -6.84037 68.6528 1.61701 44.4436C6.58573 32.6032 16.697 31.0219 26.2171 20.9785C30.4685 17.719 34.781 -1.00588 47.7098 0.0423583C60.2334 1.05775 59.5501 12.6227 64.5188 25.943C67.1618 34.5061 76.1477 33.9776 79.7421 45.0779Z" fill="#53443F"/>
<path d="M92.934 94.7233C92.934 105.538 70.3076 105.783 47.0724 101.217C28.7075 104.464 4.55916 107.508 2.83427 93.2014C2.83427 85.1408 9.42941 80.1126 30.0265 78.7935C32.4616 74.4306 33.0177 72.4013 33.7279 71.9955C41.3377 77.576 51.2324 78.2862 60.0597 71.9955C62.7993 75.1409 63.3066 77.9818 64.2198 79.1994C73.3515 79.1994 91.0061 83.2579 92.934 94.7233Z" fill="#CDCFFE"/>
<ellipse cx="46.3405" cy="96.9372" rx="1.55885" ry="4.53485" fill="#9296FF" fill-opacity="0.36"/>
<path d="M66.0461 97.3614C65.2344 98.376 64.5242 98.7819 55.7983 98.7819C52.5836 98.7819 48.1702 99.1878 44.9234 98.7819C44.6399 96.6537 44.8622 94.9758 45.0651 93.9612C45.6319 92.9692 47.8945 94.0167 50.4207 93.3029C51.2324 92.6941 52.316 91.6794 53.8705 91.6794C55.5954 91.6794 57.6246 93.8102 58.9436 94.6219C62.5593 95.7741 66.0461 95.7517 66.0461 97.3614Z" fill="#FFEAE5"/>
<path d="M12.7723 91.578C12.7723 91.578 18.0754 89.8101 21.6051 89.5486C25.6136 89.2517 31.8474 90.5634 31.8474 90.5634C31.8474 90.5634 36.0791 91.6914 38.8539 92.1867C41.6286 92.682 46.0578 93.0999 46.0578 93.0999" stroke="#9296FF" stroke-opacity="0.15" stroke-width="0.850284" stroke-linecap="round"/>
<path d="M16.329 81.0258C23.6344 78.2863 34.288 78.4892 35.9115 81.0258" stroke="#C4C6FF" stroke-width="0.850284" stroke-linecap="round"/>
<path d="M63.7125 79.6245C63.9473 79.6245 64.1376 79.4341 64.1376 79.1993C64.1376 78.9645 63.9473 78.7742 63.7125 78.7742V79.6245ZM58.6654 81.5976C59.4916 80.5769 60.1877 80.1052 60.9243 79.8708C61.6861 79.6284 62.5277 79.6245 63.7125 79.6245V78.7742C62.5636 78.7742 61.5789 78.7703 60.6665 79.0606C59.7289 79.3589 58.9031 79.9525 58.0045 81.0626L58.6654 81.5976Z" fill="#C3C6FF"/>
<path d="M57.4234 92.9984C74.6705 89.2443 81.7747 93.4043 81.7747 93.4043" stroke="#9296FF" stroke-opacity="0.24" stroke-width="0.850284" stroke-linecap="round"/>
<path d="M59.9417 71.8614C56.969 78.6561 42.6041 80.9531 33.6181 72.9186C32.7602 72.1515 37.0011 68.9013 34.781 60.3382C34.2322 60.1927 32.9066 64.5196 30.5523 67.1041C26.0619 72.0335 18.3103 80.7161 13.5318 83.596C11.749 84.6705 10.3386 81.6661 9.30312 80.9531C9.30312 78.5216 19.7691 64.884 21.8835 60.3382C24.315 56.5711 24.1035 50.9294 26.2179 43.1063C31.1866 32.2174 36.9151 30.9488 46.1985 30.9488C48.1892 30.9488 62.0561 29.363 66.3905 41.6262C70.0523 51.9865 69.3241 55.5809 71.3592 59.0696C77.2794 69.2184 80.768 75.3501 84.6796 80.9531C84.9383 83.1018 83.4429 85.4185 82.2481 86.4504C80.1337 83.596 70.956 76.9032 63.959 68.267C60.2593 63.7005 59.1442 58.9143 59.2971 60.3382C57.5102 66.3641 59.2971 69.747 59.9417 71.8614Z" fill="#FFEAE5"/>
<path d="M70.0116 60.2902C70.1002 60.4311 68.5162 60.7724 66.9258 61.7719C65.3354 62.7714 64.3409 64.0507 64.2523 63.9098C64.1638 63.7688 65.0605 62.334 66.6509 61.3345C68.2413 60.335 69.9231 60.1493 70.0116 60.2902Z" fill="#FFDCD6" fill-opacity="0.76"/>
<path d="M29.6674 63.5727C29.5952 63.7226 28.4633 62.5632 26.7707 61.7486C25.0782 60.934 23.4658 60.7727 23.538 60.6228C23.6102 60.4728 25.3022 60.4685 26.9948 61.2831C28.6874 62.0976 29.7396 63.4227 29.6674 63.5727Z" fill="#FFDCD6" fill-opacity="0.76"/>
<ellipse cx="46.9673" cy="72.8742" rx="0.425142" ry="0.850284" transform="rotate(-4.1193 46.9673 72.8742)" fill="#FFDCD6" fill-opacity="0.82"/>
<path d="M59.5188 52.6208C58.7285 54.6955 59.9417 60.2713 58.7788 65.3457C53.7044 68.4115 36.9106 67.6594 34.9924 64.7783C34.5696 58.541 34.4638 56.0038 33.5124 51.458C31.21 48.3473 25.9007 48.1138 24.315 46.4223C26.4293 31.5162 38.9002 30.9488 46.1985 30.9488C49.3639 30.9488 56.7191 30.809 61.4217 34.226C66.1244 37.643 68.3477 43.4859 69.1391 47.1623C67.6591 47.1623 60.3646 50.4008 59.5188 52.6208Z" fill="#FFEDCF"/>
<path d="M33.6511 51.4289L33.6447 51.3986L33.6263 51.3736C32.4473 49.7807 30.5062 48.9332 28.6933 48.2747C28.3722 48.1581 28.0559 48.0477 27.748 47.9402C27.1796 47.7417 26.6397 47.5533 26.1508 47.354C25.4272 47.0592 24.8417 46.7505 24.4651 46.3736C25.5282 39.0122 29.1356 35.2025 33.3727 33.2241C37.6356 31.2337 42.5489 31.0905 46.1985 31.0905C46.3129 31.0905 46.4328 31.0903 46.5578 31.0901C48.1627 31.0877 50.6063 31.084 53.2142 31.4464C56.0266 31.8372 59.0144 32.652 61.3384 34.3407C65.9321 37.6785 68.1474 43.3617 68.9653 47.0311C68.7817 47.0513 68.555 47.0995 68.2984 47.169C67.9502 47.2634 67.5362 47.4001 67.0809 47.5703C66.1701 47.9106 65.0881 48.3871 64.0263 48.933C62.965 49.4787 61.9203 50.0957 61.086 50.7177C60.2586 51.3346 59.6136 51.9741 59.3864 52.5704C59.1793 53.1141 59.1072 53.8735 59.0916 54.7683C59.0793 55.4736 59.1022 56.276 59.1269 57.1407C59.1337 57.3768 59.1405 57.6174 59.1469 57.862C59.2055 60.1315 59.2176 62.7547 58.6541 65.2551C57.4083 65.9897 55.4535 66.5045 53.172 66.8152C50.8633 67.1295 48.2365 67.2327 45.7066 67.1505C43.1763 67.0682 40.7479 66.8005 38.8354 66.3752C37.879 66.1625 37.0557 65.9113 36.4147 65.6262C35.7893 65.348 35.355 65.0452 35.1312 64.73C35.0943 64.1852 35.0598 63.6685 35.0269 63.1762C34.6852 58.0608 34.5194 55.5775 33.6511 51.4289Z" stroke="#FFDCA3" stroke-opacity="0.36" stroke-width="0.283428"/>
<path d="M35.4285 64.6265C37.8376 66.4687 43.3644 67.319 47.049 67.319C50.7336 67.319 54.985 66.4687 58.3861 65.0516" stroke="#FFDCA3" stroke-opacity="0.89" stroke-width="0.850284" stroke-linecap="round"/>
<path d="M59.2364 52.1556C60.6986 50.6594 61.805 49.7781 63.6295 48.7545C65.5389 47.6833 66.4493 47.2316 68.5895 46.7705" stroke="#FFDCA3" stroke-opacity="0.59" stroke-width="0.850284" stroke-linecap="round"/>
<path d="M24.7999 46.3453C26.6422 47.3373 27.209 47.479 29.3347 48.1876C31.2146 48.8142 32.545 49.8308 34.0113 51.1636" stroke="#FFDCA3" stroke-opacity="0.56" stroke-width="0.850284" stroke-linecap="round"/>
<path d="M14.1714 83.1325C13.4628 85.8836 10.2117 88.6262 9.2114 89.4264C7.46005 91.4275 6.23541 90.4184 7.30328 89.3343C6.75309 89.3343 4.95021 91.5248 3.9023 91.5521C3.20611 91.5703 2.83427 91.127 3.30212 90.3346C1.70166 91.1348 1.55775 90.3346 1.70056 89.8345C1.62597 89.3256 5.34961 87.0086 5.20267 86.5335C3.70223 86.7336 3.00203 84.5329 3.90229 83.5326C4.10235 83.3326 4.40244 83.5326 4.50247 83.7327C4.95998 86.0253 6.4631 84.8677 6.66055 84.3247C7.22741 82.7659 5.21836 83.0481 4.54921 83.1325C4.28585 83.1657 4.10235 82.9889 4.10235 82.9324C3.80226 80.9319 7.93596 81.4904 10.3451 78.9396C11.2453 79.6398 15.5718 80.6318 14.1714 83.1325Z" fill="#FFEAE5"/>
<path d="M6.80219 83.009C7.47019 82.927 7.84639 82.9238 8.51272 82.799C9.17905 82.6742 9.55681 82.5786 10.1834 82.376" stroke="#FFE0DB" stroke-opacity="0.67" stroke-width="0.566856" stroke-linecap="round"/>
<path d="M7.40321 89.2343L8.60356 88.0339" stroke="#FFE0DB" stroke-opacity="0.36" stroke-width="0.566856" stroke-linecap="round"/>
<path d="M3.70218 90.0345C4.30767 89.5266 4.59713 89.2419 5.20262 88.7341C5.80811 88.2263 6.19759 87.9415 6.80308 87.4337" stroke="#FFE0DB" stroke-opacity="0.44" stroke-width="0.566856" stroke-linecap="round"/>
<path d="M80.4867 84.4079C81.1953 87.159 84.4464 89.9016 85.4467 90.7018C87.198 92.7029 88.4227 91.6938 87.3548 90.6097C87.905 90.6097 89.7079 92.8002 90.7558 92.8275C91.452 92.8457 91.8238 92.4024 91.356 91.61C92.9564 92.4102 93.1003 91.61 92.9575 91.1098C93.0321 90.601 89.3085 88.2839 89.4554 87.8089C90.9558 88.0089 91.656 85.8083 90.7558 84.808C90.5557 84.608 90.2556 84.808 90.1556 85.0081C89.6981 87.3007 88.195 86.1431 87.9975 85.6001C87.4307 84.0412 89.4397 84.3235 90.1089 84.4079C90.3722 84.4411 90.5557 84.2643 90.5557 84.2078C90.8558 82.2073 86.7221 82.7658 84.313 80.215C83.4127 80.9152 79.0863 81.9072 80.4867 84.4079Z" fill="#FFEAE5"/>
<path d="M87.8559 84.2843C87.1878 84.2023 86.8116 84.199 86.1453 84.0743C85.479 83.9495 85.1012 83.8539 84.4747 83.6512" stroke="#FFE0DB" stroke-opacity="0.67" stroke-width="0.566856" stroke-linecap="round"/>
<path d="M87.2548 90.5097L86.0545 89.3093" stroke="#FFE0DB" stroke-opacity="0.36" stroke-width="0.566856" stroke-linecap="round"/>
<path d="M90.9558 91.3099C90.3504 90.802 90.0609 90.5173 89.4554 90.0095C88.8499 89.5017 88.4604 89.2169 87.8549 88.7091" stroke="#FFE0DB" stroke-opacity="0.44" stroke-width="0.566856" stroke-linecap="round"/>
<ellipse cx="46.3041" cy="36.0654" rx="7.40021" ry="6.23732" fill="#FFEAE5"/>
<path d="M53.2791 36.0654C53.2791 39.2102 50.2273 41.8776 46.3041 41.8776C42.3808 41.8776 39.329 39.2102 39.329 36.0654C39.329 32.9207 42.3808 30.2533 46.3041 30.2533C50.2273 30.2533 53.2791 32.9207 53.2791 36.0654Z" stroke="#FFDCA3" stroke-opacity="0.63" stroke-width="0.850284"/>
<path d="M51.3785 33.5282C51.3785 38.0239 49.2959 39.8712 46.7269 39.8712C44.1579 39.8712 41.4411 38.0239 41.4411 33.5282C41.4411 24.9651 44.1579 25.3879 46.7269 25.3879C49.2959 25.3879 51.3785 25.8108 51.3785 33.5282Z" fill="#FFEAE5"/>
<path d="M58.9904 31.3396C58.9904 34.9595 57.6337 33.8292 54.656 33.8292C52.0131 33.1949 50.9418 33.8292 50.533 31.3396C50.0045 28.1205 49.793 25.4776 52.5417 24.949C55.5194 24.949 58.9904 27.7197 58.9904 31.3396Z" fill="white"/>
<path d="M53.2817 33.0891C53.2817 34.3152 52.4076 35.7321 51.5902 35.7321C50.4273 35.7321 50.4273 34.7381 50.4273 33.512C50.4273 32.2859 50.0328 30.0233 50.8502 30.0233C51.6676 30.0233 53.2817 31.863 53.2817 33.0891Z" fill="white"/>
<path d="M58.5676 34.9921C58.5676 36.2182 57.318 37.1064 56.559 37.1064C55.7999 37.1064 56.1361 36.2182 56.1361 34.9921C56.1361 33.766 55.7999 32.3491 56.559 32.3491C57.318 32.3491 59.3076 30.4462 58.5676 34.9921Z" fill="white"/>
<path d="M61.8448 27.3805C61.8448 31.292 57.6348 33.3006 56.9818 31.0806C56.3288 28.8605 59.7305 30.6577 59.9419 25.9004C59.6247 20.1917 64.0649 19.6631 64.0649 21.566C64.0649 22.9403 61.8448 21.3546 61.8448 27.3805Z" fill="white"/>
<path d="M43.4934 30.5518C42.8591 37.3177 33.7688 34.5467 33.556 34.4634C31.1245 33.5119 32.1817 27.2746 32.4988 26.2174C32.9849 24.5973 34.5177 27.2725 35.0361 27.1689C36.0932 26.9574 37.679 26.8517 39.0533 26.8517C39.9304 26.369 40.3641 24.9627 41.1677 24.8431C42.4363 24.7374 43.5727 29.7061 43.4934 30.5518Z" fill="white"/>
<path d="M32.8943 26.9898C32.9171 26.7544 33.2012 26.6489 33.3721 26.8123L34.2824 27.682C34.4338 27.8266 34.3815 28.0798 34.1853 28.1526L33.1532 28.536C32.957 28.6089 32.7522 28.4512 32.7724 28.2429L32.8943 26.9898Z" fill="#FFD5DD" fill-opacity="0.62"/>
<circle cx="34.1469" cy="31.609" r="0.740021" fill="url(#paint0_radial)"/>
<circle cx="41.0618" cy="31.3976" r="0.740021" fill="url(#paint1_radial)"/>
<rect x="38.6303" y="30.2347" width="1.26861" height="0.422869" rx="0.211435" fill="#EEDBD2" fill-opacity="0.72"/>
<rect x="34.6755" y="30.2347" width="1.26861" height="0.422869" rx="0.211435" fill="#EEDBD2" fill-opacity="0.72"/>
<rect x="36.9388" y="31.2919" width="0.634304" height="0.422869" rx="0.211435" fill="#DAC7BE"/>
<circle cx="37.3617" cy="33.1948" r="0.211435" fill="#EEDBD2"/>
<rect width="1.45661" height="0.264334" rx="0.132167" transform="matrix(-0.907889 0.41921 0.41921 0.907889 43.6093 30.2347)" fill="#EEDBD2"/>
<rect width="1.45661" height="0.264334" rx="0.132167" transform="matrix(-0.996134 -0.087842 -0.087842 0.996134 43.9316 31.4198)" fill="#EEDBD2"/>
<rect x="32.0375" y="30.6576" width="1.45661" height="0.264334" rx="0.132167" transform="rotate(24.7847 32.0375 30.6576)" fill="#EEDBD2"/>
<rect x="31.7153" y="31.8428" width="1.45661" height="0.264334" rx="0.132167" transform="rotate(-5.03947 31.7153 31.8428)" fill="#EEDBD2"/>
<path d="M41.4086 25.7606C41.3201 25.5413 41.0178 25.5204 40.9 25.7254L40.2727 26.8169C40.1684 26.9984 40.29 27.2264 40.4988 27.2409L41.5972 27.3169C41.806 27.3313 41.9579 27.1222 41.8796 26.9281L41.4086 25.7606Z" fill="#FFD5DD" fill-opacity="0.62"/>
<path d="M34.549 35.1234C33.9991 36.3054 33.0946 37.0503 32.5287 36.787C31.9627 36.5237 31.9497 35.3521 32.4995 34.1701C33.0494 32.988 33.5721 33.068 34.138 33.3313C34.704 33.5945 35.0988 33.9414 34.549 35.1234Z" fill="white"/>
<path d="M39.1288 34.394C38.587 35.7634 38.6314 37.0649 39.2282 37.301C39.8249 37.5372 40.7479 36.6185 41.2898 35.2491C41.8316 33.8797 42.8214 33.3252 42.2246 33.0891C41.6279 32.853 39.6707 33.0246 39.1288 34.394Z" fill="white"/>
<ellipse cx="46.5156" cy="15.8699" rx="8.45739" ry="12.4746" fill="#FFEAE6"/>
<path d="M44.6126 19.3253C44.6126 19.6275 43.739 20.31 42.5453 20.31C41.3516 20.31 40.384 19.6275 40.384 19.3253C40.384 19.0232 41.3516 19.7629 42.5453 19.7629C43.739 19.7629 44.6126 19.0232 44.6126 19.3253Z" fill="#2B140A" fill-opacity="0.48"/>
<path d="M52.2243 19.3253C52.2243 19.6275 51.3506 20.31 50.1569 20.31C48.9633 20.31 47.9956 19.6275 47.9956 19.3253C47.9956 19.0232 48.9633 19.7629 50.1569 19.7629C51.3506 19.7629 52.2243 19.0232 52.2243 19.3253Z" fill="#2B140A" fill-opacity="0.46"/>
<path d="M44.2955 17.0039C44.2955 17.1419 43.2755 17.0039 42.1715 17.0039C41.0675 17.0039 40.1725 17.2538 40.1725 17.0039C40.1725 16.754 41.0675 16.5042 42.1715 16.5042C43.2755 16.5042 44.2955 16.8659 44.2955 17.0039Z" fill="#53443F"/>
<path d="M47.9956 17.0039C47.9956 17.1419 49.0156 17.0039 50.1196 17.0039C51.2236 17.0039 52.1186 17.2538 52.1186 17.0039C52.1186 16.754 51.2236 16.5042 50.1196 16.5042C49.0156 16.5042 47.9956 16.8659 47.9956 17.0039Z" fill="#53443F"/>
<circle cx="46.5156" cy="24.9616" r="0.422869" fill="#F0C9C5"/>
<path d="M50.0043 27.076C49.2446 27.7761 48.1495 28.3446 46.6383 28.3446C45.1271 28.3446 43.5696 27.7761 43.0269 27.076C42.7013 25.9584 45.0186 27.3645 46.5298 27.3645C48.041 27.3645 50.1128 25.9584 50.0043 27.076Z" fill="#FFDCD6" fill-opacity="0.21"/>
<path d="M45.6698 20.9443C45.6698 20.8276 45.7645 20.7329 45.8812 20.7329C45.998 20.7329 46.0927 20.8276 46.0927 20.9443V22.3524C46.0927 22.5089 46.2196 22.6358 46.3761 22.6358H46.727C46.8437 22.6358 46.9384 22.7305 46.9384 22.8473C46.9384 22.964 46.8437 23.0587 46.727 23.0587H46.2366C45.9236 23.0587 45.6698 22.8049 45.6698 22.4918V20.9443Z" fill="#EFC8C4" fill-opacity="0.79"/>
<circle cx="41.864" cy="23.0587" r="1.48004" fill="url(#paint2_radial)" fill-opacity="0.4"/>
<circle cx="51.3786" cy="23.0587" r="1.48004" fill="url(#paint3_radial)" fill-opacity="0.4"/>
<ellipse cx="54.3385" cy="18.0241" rx="1.608" ry="3.13633" transform="rotate(29.9805 54.3385 18.0241)" fill="#FFEAE5"/>
<path d="M55.6041 16.4483C55.4046 16.5065 54.8498 16.625 54.5753 16.9573C54.3007 17.2895 54.3668 17.8776 54.3668 17.8776C54.0647 17.628 54.0424 17.1563 54.317 16.824C54.5915 16.4917 55.302 16.1987 55.6041 16.4483Z" fill="#F2CFCB"/>
<path d="M59.2992 12.6984C59.2992 19.7047 47.3531 14.9185 43.7588 9.73832C40.9044 16.7157 32.7642 22.8473 35.4071 12.6984C35.4071 5.69208 40.7555 0.0123291 47.3531 0.0123291C53.9508 0.0123291 59.2992 5.69208 59.2992 12.6984Z" fill="#53443F"/>
<ellipse rx="1.3926" ry="2.7162" transform="matrix(-0.866195 0.499706 0.499706 0.866195 37.8732 18.0728)" fill="#FFEAE5"/>
<path d="M36.7897 17.852C36.9689 17.8692 37.46 17.8801 37.7474 18.1182C38.0349 18.3564 38.0739 18.8674 38.0739 18.8674C38.2905 18.6061 38.233 18.2012 37.9456 17.963C37.6582 17.7248 37.0062 17.5907 36.7897 17.852Z" fill="#F2CFCB"/>
<defs>
<radialGradient id="paint0_radial" cx="0" cy="0" r="1" gradientUnits="userSpaceOnUse" gradientTransform="translate(34.1469 31.609) rotate(90) scale(0.740021)">
<stop offset="0.713542" stop-color="#FFD5DD" stop-opacity="0.53"/>
<stop offset="1" stop-color="#FFD5DD" stop-opacity="0"/>
</radialGradient>
<radialGradient id="paint1_radial" cx="0" cy="0" r="1" gradientUnits="userSpaceOnUse" gradientTransform="translate(41.0618 31.3976) rotate(90) scale(0.740021)">
<stop offset="0.713542" stop-color="#FFD5DD" stop-opacity="0.53"/>
<stop offset="1" stop-color="#FFD5DD" stop-opacity="0"/>
</radialGradient>
<radialGradient id="paint2_radial" cx="0" cy="0" r="1" gradientUnits="userSpaceOnUse" gradientTransform="translate(41.864 23.0587) rotate(90) scale(1.48004)">
<stop offset="0.583333" stop-color="#FEC6BE"/>
<stop offset="1" stop-color="#F8AFA5" stop-opacity="0"/>
</radialGradient>
<radialGradient id="paint3_radial" cx="0" cy="0" r="1" gradientUnits="userSpaceOnUse" gradientTransform="translate(51.3786 23.0587) rotate(90) scale(1.48004)">
<stop offset="0.583333" stop-color="#FEC6BE"/>
<stop offset="1" stop-color="#F8AFA5" stop-opacity="0"/>
</radialGradient>
</defs>
</svg>
