<svg width="16" height="16" viewBox="0 0 16 16" fill="none" xmlns="http://www.w3.org/2000/svg">
<g clip-path="url(#clip0)">
<path opacity="0.4" d="M14.4152 8.99999C14.7133 8.99999 14.9586 9.26217 14.9171 9.55749C14.3915 13.2787 11.1427 16.125 7.24771 15.9959C3.37208 15.8687 0.131145 12.6281 0.00395718 8.75217C-0.123855 4.85718 2.72271 1.60843 6.44146 1.0828C6.73771 1.04124 6.99989 1.28624 6.99989 1.58468V8.99999H14.4152Z" fill="black"/>
<path d="M16 6.97502C16.0194 7.25971 15.7812 7.50002 15.4941 7.50002H8.5V0.507519C8.5 0.221894 8.74 -0.0184189 9.025 1.86467e-05C12.7581 0.258769 15.7412 3.24189 16 6.97502Z" fill="black"/>
</g>
<defs>
<clipPath id="clip0">
<rect width="16" height="16" fill="white"/>
</clipPath>
</defs>
</svg>
