<svg width="16" height="16" viewBox="0 0 16 16" fill="none" xmlns="http://www.w3.org/2000/svg">
<path opacity="0.4" d="M15.2422 9.8625L13.9109 9.09375C14.0453 8.36867 14.0453 7.62508 13.9109 6.9L15.2422 6.13125C15.316 6.08838 15.3731 6.02184 15.4043 5.94242C15.4355 5.863 15.4389 5.77537 15.4141 5.69375C15.07 4.594 14.4862 3.58431 13.7047 2.7375C13.6472 2.67485 13.5701 2.63361 13.486 2.62055C13.402 2.60749 13.316 2.62338 13.2422 2.66563L11.9109 3.43438C11.3517 2.9532 10.7073 2.58114 10.0109 2.3375V0.803125C10.0109 0.71808 9.98198 0.63557 9.92889 0.569134C9.8758 0.502697 9.8017 0.456281 9.71875 0.4375C8.59499 0.1875 7.43002 0.1875 6.30625 0.4375C6.22302 0.455973 6.14856 0.502257 6.09516 0.568723C6.04177 0.635188 6.01261 0.717866 6.0125 0.803125V2.34063C5.31791 2.58803 4.6741 2.95971 4.1125 3.4375L2.78281 2.66875C2.70919 2.62582 2.62303 2.60953 2.53881 2.62262C2.45459 2.63571 2.37744 2.67738 2.32031 2.74062C1.53752 3.58648 0.953511 4.59648 0.610938 5.69688C0.585428 5.77847 0.588562 5.86633 0.619821 5.9459C0.65108 6.02546 0.708587 6.09196 0.782813 6.13438L2.11406 6.90312C1.97969 7.6282 1.97969 8.3718 2.11406 9.09688L0.782813 9.86563C0.708916 9.90837 0.65169 9.9749 0.620474 10.0544C0.589258 10.1338 0.585897 10.2215 0.610938 10.3031C0.954804 11.403 1.53865 12.4127 2.32031 13.2594C2.37783 13.322 2.45493 13.3633 2.53897 13.3763C2.62301 13.3894 2.709 13.3735 2.78281 13.3313L4.11406 12.5625C4.67314 13.0439 5.31765 13.4159 6.01407 13.6594V15.1969C6.01417 15.2821 6.04333 15.3648 6.09673 15.4313C6.15013 15.4977 6.22458 15.544 6.30782 15.5625C7.43158 15.8125 8.59655 15.8125 9.72032 15.5625C9.80355 15.544 9.87801 15.4977 9.93141 15.4313C9.9848 15.3648 10.014 15.2821 10.0141 15.1969V13.6594C10.7086 13.4119 11.3524 13.0402 11.9141 12.5625L13.2453 13.3313C13.319 13.3741 13.4051 13.3904 13.4893 13.3773C13.5735 13.3642 13.6507 13.3226 13.7078 13.2594C14.4907 12.4136 15.0748 11.4036 15.4172 10.3031C15.4411 10.2207 15.4369 10.1326 15.4053 10.0528C15.3736 9.97301 15.3162 9.90605 15.2422 9.8625ZM8.01094 10.9937C7.41822 10.9937 6.8388 10.818 6.34597 10.4887C5.85313 10.1594 5.46902 9.69134 5.24219 9.14373C5.01536 8.59612 4.95601 7.99355 5.07165 7.41221C5.18728 6.83088 5.47271 6.29688 5.89183 5.87776C6.31095 5.45864 6.84494 5.17322 7.42628 5.05758C8.00762 4.94195 8.61019 5.0013 9.1578 5.22812C9.7054 5.45495 10.1735 5.83907 10.5028 6.3319C10.8321 6.82473 11.0078 7.40415 11.0078 7.99687C11.0079 8.39044 10.9304 8.78016 10.7798 9.14378C10.6292 9.50739 10.4084 9.83778 10.1301 10.1161C9.85185 10.3944 9.52146 10.6151 9.15784 10.7657C8.79423 10.9163 8.40451 10.9938 8.01094 10.9937Z" fill="black"/>
<path d="M8.01094 9.99375C7.616 9.99375 7.22992 9.87664 6.90153 9.65722C6.57315 9.4378 6.3172 9.12593 6.16607 8.76105C6.01493 8.39617 5.97538 7.99466 6.05243 7.60731C6.12948 7.21995 6.31967 6.86414 6.59893 6.58487C6.8782 6.3056 7.23401 6.11542 7.62137 6.03837C8.00873 5.96132 8.41023 6.00087 8.77511 6.152C9.13999 6.30314 9.45186 6.55909 9.67128 6.88747C9.8907 7.21586 10.0078 7.60193 10.0078 7.99688C10.0078 8.25911 9.95617 8.51878 9.85582 8.76105C9.75546 9.00332 9.60837 9.22345 9.42295 9.40888C9.23752 9.59431 9.01739 9.7414 8.77511 9.84175C8.53284 9.9421 8.27317 9.99375 8.01094 9.99375Z" fill="black"/>
</svg>
