<svg width="108" height="106" viewBox="0 0 108 106" fill="none" xmlns="http://www.w3.org/2000/svg">
<ellipse cx="54.3793" cy="67.2316" rx="53.5" ry="24.075" fill="#CDCFFE"/>
<path d="M76.4379 39.0138C71.56 37.869 63.6078 39.0138 63.6078 39.0138L51.0833 46.3452L31.38 57.0369L20.2301 59.7356C20.2301 59.7356 15.7802 59.6743 14.1206 60.9576C12.7595 62.01 10.9707 63.7225 11.2186 65.6924C11.4764 67.7413 12.8987 68.289 15.8007 70.1219C18.7027 71.9547 23.1321 74.0386 27.2561 75.671C31.38 77.3034 32.763 75.7732 33.0601 75.7732C33.5184 75.7732 33.5184 77.0236 40.8498 79.4389C44.3283 80.5849 47.4438 81.4263 51.0833 81.0168C54.7449 80.6049 55.8402 77.6138 59.3312 76.4347C62.5364 75.3521 64.512 75.3276 67.8845 75.0601C71.2143 74.7959 73.1367 74.5506 76.4379 75.0601C78.5683 75.3888 79.6308 76.3271 81.7837 76.4347C84.4592 76.5684 88.5042 75.0601 88.5042 75.0601C88.5042 75.0601 88.7005 77.1228 88.5042 78.4203C88.1477 80.777 87.3051 82.0162 85.9835 83.96L85.9077 84.0716C83.8889 87.0418 82.0181 89.201 79.0344 91.1998C76.2642 93.0556 74.2685 94.2073 71.092 95.2215C67.0886 96.4998 64.2914 96.4727 60.0949 96.6984C56.3425 96.9001 54.9017 96.6984 51.0833 96.6984C48.8443 96.6984 46.1882 96.9996 45.7374 99.1927C45.3728 100.967 46.5065 102.78 48.1813 103.469C53.3744 105.608 57.5621 105.311 63.6078 104.997C69.7528 104.678 73.3614 104.173 79.0344 101.789C83.5522 99.8913 86.9693 97.6613 90.3371 94.1018C92.7707 91.5297 93.8592 90.5802 95.3774 87.3813C97.5487 82.8063 98.9756 78.8243 99.5014 73.7876C100.18 67.2882 99.8727 64.2598 97.8212 58.0555C96.1475 52.9936 93.4867 50.2388 89.7958 46.4174L89.7261 46.3452C85.6087 42.0821 82.2079 40.3679 76.4379 39.0138Z" fill="#DEB7A9"/>
<path d="M13.2699 40.2094C13.6527 41.118 14.2659 42.2283 14.7743 43.0973C15.2051 43.8337 16.2171 43.9237 16.7936 43.2947L26.2701 32.9567C26.8898 32.2807 26.632 31.1983 25.7662 30.8959C24.5083 30.4564 22.8221 29.9033 21.4984 29.599C19.249 29.0818 17.9596 28.6911 15.6518 28.7328C14.3178 28.7569 12.5286 29.114 11.4354 29.362C10.8562 29.4935 10.4585 30.0142 10.4928 30.6072C10.5405 31.4342 10.6478 32.609 10.8879 33.4966C11.5949 36.1101 12.2186 37.7145 13.2699 40.2094Z" fill="#E2C0B5"/>
<path d="M50.7529 24.6431C49.9569 25.2249 49.0177 26.0773 48.2892 26.7721C47.6718 27.361 47.8173 28.3664 48.5621 28.7826L60.8047 35.6236C61.6052 36.071 62.5991 35.5708 62.694 34.6586C62.832 33.3333 62.9819 31.5651 62.9732 30.2069C62.9584 27.8988 63.0417 26.5541 62.4696 24.318C62.139 23.0254 61.3794 21.3665 60.8863 20.3599C60.625 19.8264 60.0267 19.5594 59.4575 19.7293C58.6637 19.9662 57.5452 20.3412 56.7367 20.7793C54.3563 22.0691 52.9387 23.0455 50.7529 24.6431Z" fill="#E2C0B5"/>
<ellipse cx="41.0771" cy="45.3157" rx="26.9237" ry="19.632" transform="rotate(-12.8791 41.0771 45.3157)" fill="#E2C0B5"/>
<circle cx="44.6683" cy="55.9172" r="1.22191" fill="#44445B"/>
<path d="M15.7795 38.5494C16.0051 39.0848 16.3664 39.7391 16.666 40.2511C16.9199 40.6851 17.5162 40.7381 17.8559 40.3675L23.4403 34.2754C23.8055 33.8771 23.6535 33.2392 23.1434 33.061C22.4021 32.802 21.4084 32.4761 20.6284 32.2968C19.3028 31.992 18.5431 31.7618 17.1831 31.7863C16.397 31.8006 15.3426 32.011 14.6984 32.1571C14.3571 32.2346 14.1228 32.5414 14.1429 32.8909C14.1711 33.3782 14.2343 34.0705 14.3758 34.5936C14.7924 36.1337 15.16 37.0791 15.7795 38.5494Z" fill="#FFE9ED"/>
<path d="M53.7159 25.9705C53.2757 26.3496 52.7639 26.8944 52.3686 27.3367C52.0335 27.7116 52.1661 28.2954 52.6232 28.5049L60.1355 31.9492C60.6268 32.1744 61.1872 31.834 61.2001 31.2937C61.219 30.5087 61.2241 29.463 61.1553 28.6656C61.0384 27.3105 61.0242 26.5167 60.5833 25.23C60.3284 24.4862 59.8044 23.5473 59.4675 22.9792C59.289 22.6781 58.925 22.5493 58.5986 22.6758C58.1435 22.8522 57.504 23.1249 57.0497 23.4202C55.7119 24.2895 54.925 24.9296 53.7159 25.9705Z" fill="#FFE9ED"/>
<path d="M34.6064 48.0503C34.1622 47.7369 33.8885 47.5872 33.3848 47.3826C32.9389 47.2013 32.6744 47.1283 32.202 47.0361C31.6569 46.9298 31.3401 46.8896 30.7853 46.9135C30.1267 46.9419 29.7504 47.0213 29.1298 47.2435C28.7158 47.3917 28.4586 47.4544 28.112 47.7249C27.8016 47.967 27.6476 48.1459 27.4542 48.4888" stroke="#44445B" stroke-width="1.02355" stroke-linecap="round"/>
<path d="M47.5557 44.0852C47.8204 43.6103 48.0023 43.3569 48.3677 42.9544C48.6912 42.598 48.8981 42.4176 49.284 42.13C49.7292 41.7981 49.9975 41.6248 50.5079 41.4061C51.1139 41.1465 51.4874 41.0552 52.1431 40.9868C52.5804 40.9412 52.8394 40.8863 53.269 40.98C53.6536 41.0639 53.8698 41.1585 54.1926 41.3839" stroke="#44445B" stroke-width="1.02355" stroke-linecap="round"/>
<path d="M41.253 51.3306C41.1147 50.8438 41.3972 50.337 41.8841 50.1986L43.9697 49.606C44.4566 49.4676 44.9634 49.7502 45.1018 50.237C45.2401 50.7239 44.9576 51.2307 44.4707 51.3691L42.385 51.9617C41.8982 52.1 41.3914 51.8175 41.253 51.3306Z" fill="#44445B"/>
<circle cx="56.2764" cy="47.3639" r="2.13834" fill="#FFE9ED"/>
<circle cx="32.4491" cy="55.9173" r="2.13834" fill="#FFE9ED"/>
<line x1="59.6142" y1="43.356" x2="63.2656" y2="39.4438" stroke="#A98375" stroke-width="0.916431" stroke-linecap="round"/>
<line x1="60.8958" y1="44.8711" x2="66.1086" y2="43.661" stroke="#A98375" stroke-width="0.916431" stroke-linecap="round"/>
<line x1="25.8196" y1="55.7637" x2="20.8993" y2="57.8679" stroke="#A98375" stroke-width="0.916431" stroke-linecap="round"/>
<line x1="25.2592" y1="53.8602" x2="20.0017" y2="52.8618" stroke="#A98375" stroke-width="0.916431" stroke-linecap="round"/>
<path d="M58.4148 71.191C58.4148 71.191 60.7237 70.3846 62.2332 69.9691C63.7678 69.5467 64.622 69.2232 66.2044 69.0527C67.6277 68.8993 68.7441 68.7472 70.1756 68.7472C72.144 68.7472 74.9105 69.0527 74.9105 69.0527" stroke="#A88579" stroke-opacity="0.45" stroke-width="1.22191" stroke-linecap="round"/>
<path d="M80.1035 50.4869C80.1035 50.4869 75.7614 50.1579 73.383 50.9451C71.4981 51.569 70.2772 52.2141 68.8009 53.5417C67.2215 54.9619 66.6418 55.5129 65.5934 57.3601C64.642 59.0362 64.1174 59.8956 63.7605 61.7896C63.4181 63.6067 63.3023 64.6754 63.3023 66.5244C63.3023 67.1209 63.7605 68.8155 63.7605 68.8155" stroke="#A88579" stroke-opacity="0.37" stroke-width="1.22191" stroke-linecap="round"/>
<path d="M57.3854 67.5254C57.3854 67.5254 58.3911 70.144 58.3395 71.8867C58.294 73.4221 58.0729 74.329 57.3854 75.7028C56.6749 77.1227 56.0585 77.8745 54.7959 78.8374C53.3342 79.9523 52.2595 80.3866 50.4347 80.6092C47.8073 80.9297 44.0291 79.6552 44.0291 79.6552C44.0291 79.6552 39.9708 78.4555 37.6235 77.6108C36.0107 77.0305 33.6711 75.7028 33.6711 75.7028C33.6711 75.7028 34.2208 73.0908 35.3065 71.8867C36.0482 71.0641 36.5907 70.6514 37.6235 70.2512C39.1619 69.655 40.0622 69.706 41.7121 69.706" stroke="#A88579" stroke-opacity="0.39" stroke-width="1.09032" stroke-linecap="round"/>
<path d="M30.3108 67.2198C32.3674 68.1925 33.7983 69.8164 33.9765 70.8856C34.1547 71.9547 33.9765 74.704 32.5694 75.3898C30.2269 76.5314 27.0882 75.0733 24.2013 73.7876" stroke="#A88579" stroke-opacity="0.4" stroke-width="1.16729" stroke-linecap="round"/>
<line x1="36.4931" y1="76.6958" x2="37.3429" y2="74.784" stroke="#A98375" stroke-width="0.916431" stroke-linecap="round"/>
<line x1="31.3497" y1="75.2391" x2="29.965" y2="73.6707" stroke="#A98375" stroke-width="0.916431" stroke-linecap="round"/>
<line x1="32.8771" y1="73.7117" x2="31.4924" y2="72.1433" stroke="#A98375" stroke-width="0.916431" stroke-linecap="round"/>
<line x1="38.6315" y1="77.6122" x2="39.4812" y2="75.7004" stroke="#A98375" stroke-width="0.916431" stroke-linecap="round"/>
<path d="M42.1391 11.1606H44.6957V12H40.8329V11.387L43.3408 7.77503H40.8364V6.92865H44.6399V7.52773L42.1391 11.1606ZM48.6051 11.1606H51.1616V12H47.2989V11.387L49.8067 7.77503H47.3024V6.92865H51.1059V7.52773L48.6051 11.1606ZM55.071 11.1606H57.6276V12H53.7649V11.387L56.2727 7.77503H53.7684V6.92865H57.5719V7.52773L55.071 11.1606Z" fill="#848496"/>
</svg>
