<svg width="86" height="86" viewBox="0 0 86 86" fill="none" xmlns="http://www.w3.org/2000/svg">
<g clip-path="url(#clip0)" filter="url(#filter0_d)">
<path d="M42.5066 73.0044C60.4571 73.0044 75.0088 58.4527 75.0088 40.5022C75.0088 22.5517 60.4571 8 42.5066 8C24.5562 8 10.0044 22.5517 10.0044 40.5022C10.0044 58.4527 24.5562 73.0044 42.5066 73.0044Z" fill="#FFEDCF"/>
<path d="M75.0089 40.5022C75.0089 58.4597 60.454 73.0044 42.5067 73.0044C32.2888 73.0044 23.1679 68.2916 17.2057 60.9075C22.7819 65.4172 29.8816 68.1088 37.611 68.1088C55.5584 68.1088 70.1132 53.5641 70.1132 35.6066C70.1132 27.8772 67.4217 20.7775 62.912 15.2013C70.2859 21.1634 75.0089 30.2843 75.0089 40.5022Z" fill="#FFDCA3" fill-opacity="0.4"/>
<path d="M24.5004 37.0476C24.21 36.359 24.533 35.5647 25.2216 35.2742C25.9123 34.9837 26.7045 35.3067 26.995 35.9953C27.7039 37.6773 29.388 38.6727 31.1817 38.4777C32.9754 38.2807 34.4014 36.942 34.7285 35.1462C34.8626 34.4109 35.5695 33.9233 36.3028 34.0574C37.0382 34.1915 37.5277 34.8964 37.3916 35.6317C36.8472 38.6158 34.4705 40.8402 31.4762 41.1693C28.4942 41.4984 25.6827 39.8489 24.5004 37.0476Z" fill="#707080"/>
<path d="M53.5349 41.1685C50.5407 40.8394 48.1639 38.6151 47.6195 35.631C47.4855 34.8956 47.973 34.1887 48.7084 34.0546C49.4437 33.9226 50.1486 34.4081 50.2847 35.1434C50.6118 36.9392 52.0378 38.2779 53.8315 38.4749C55.6313 38.6699 57.3093 37.6745 58.0182 35.9925C58.3087 35.3039 59.103 34.9809 59.7916 35.2714C60.4802 35.5619 60.8032 36.3562 60.5128 37.0448C59.3285 39.8542 56.5129 41.4976 53.5349 41.1685Z" fill="#707080"/>
<path d="M42.5067 61.6774C46.3144 61.6774 49.4012 58.5906 49.4012 54.7829C49.4012 50.9752 46.3144 47.8884 42.5067 47.8884C38.6989 47.8884 35.6121 50.9752 35.6121 54.7829C35.6121 58.5906 38.6989 61.6774 42.5067 61.6774Z" fill="#707080"/>
<path d="M59.0605 26.1504V28.4276H50.2077V26.3881C50.9085 25.5755 54.5386 21.3726 55.272 20.6392C54.4431 20.688 51.4672 20.623 50.5754 20.6392V18.5225H58.7578V20.3691C54.3152 25.4963 55.3491 24.3018 53.6468 26.1484H59.0605V26.1504Z" fill="#9296FF"/>
<path d="M74.3812 20.3143V23.79H60.8663V20.6779C61.9369 19.4387 67.4785 13.0216 68.5958 11.9023C67.3322 11.9754 62.786 11.8779 61.425 11.9023V8.67035H73.92V11.4899C67.1372 19.3169 68.7176 17.4947 66.1175 20.3143H74.3812Z" fill="#9296FF"/>
</g>
<defs>
<filter id="filter0_d" x="0.00442505" y="0" width="85.0044" height="85.0044" filterUnits="userSpaceOnUse" color-interpolation-filters="sRGB">
<feFlood flood-opacity="0" result="BackgroundImageFix"/>
<feColorMatrix in="SourceAlpha" type="matrix" values="0 0 0 0 0 0 0 0 0 0 0 0 0 0 0 0 0 0 127 0"/>
<feOffset dy="2"/>
<feGaussianBlur stdDeviation="5"/>
<feColorMatrix type="matrix" values="0 0 0 0 0.4 0 0 0 0 0.4 0 0 0 0 0.4 0 0 0 0.04 0"/>
<feBlend mode="normal" in2="BackgroundImageFix" result="effect1_dropShadow"/>
<feBlend mode="normal" in="SourceGraphic" in2="effect1_dropShadow" result="shape"/>
</filter>
<clipPath id="clip0">
<rect width="65.0044" height="65.0044" fill="white" transform="translate(10.0044 8)"/>
</clipPath>
</defs>
</svg>
