<svg width="86" height="86" viewBox="0 0 86 86" fill="none" xmlns="http://www.w3.org/2000/svg">
<g clip-path="url(#clip0)" filter="url(#filter0_d)">
<path d="M42.5199 73.0044C60.4704 73.0044 75.0221 58.4527 75.0221 40.5022C75.0221 22.5517 60.4704 8 42.5199 8C24.5694 8 10.0177 22.5517 10.0177 40.5022C10.0177 58.4527 24.5694 73.0044 42.5199 73.0044Z" fill="#FFEDCF"/>
<path d="M47.238 68.2864C29.2875 68.2864 14.7358 53.7347 14.7358 35.7842C14.7358 28.0107 17.4681 20.8775 22.0203 15.2845C14.698 21.2441 10.0178 30.3252 10.0178 40.5022C10.0178 58.4527 24.5695 73.0044 42.52 73.0044C52.6971 73.0044 61.7782 68.3241 67.7379 61.0017C62.1448 65.5539 55.0116 68.2864 47.238 68.2864Z" fill="#FFDCA3" fill-opacity="0.39"/>
<path d="M30.9869 38.6673C28.9933 38.6673 27.0921 37.7244 25.7712 36.0805C25.3175 35.5163 25.4077 34.6915 25.9719 34.238C26.5391 33.7844 27.3614 33.8755 27.8149 34.4393C28.6472 35.4754 29.7735 36.0462 30.9869 36.0462C32.2001 36.0462 33.3264 35.4754 34.1589 34.4393C34.6125 33.8755 35.4356 33.7845 36.0019 34.238C36.5661 34.6917 36.6561 35.5164 36.2026 36.0805C34.8818 37.7244 32.9804 38.6673 30.9869 38.6673Z" fill="#707080"/>
<path d="M54.057 38.6673C52.0634 38.6673 50.1622 37.7244 48.8413 36.0805C48.3876 35.5163 48.4778 34.6915 49.042 34.238C49.6083 33.7844 50.4325 33.8755 50.885 34.4393C51.7173 35.4754 52.8436 36.0462 54.057 36.0462C55.2704 36.0462 56.3965 35.4754 57.229 34.4393C57.6826 33.8755 58.5047 33.7845 59.072 34.238C59.6362 34.6917 59.7262 35.5164 59.2727 36.0805C57.9518 37.7244 56.0506 38.6673 54.057 38.6673Z" fill="#707080"/>
<path d="M36.2283 32.3772C36.0318 32.3772 35.8311 32.3326 35.6437 32.2384L25.159 26.9962C24.5109 26.6721 24.2489 25.8852 24.5724 25.2376C24.8948 24.591 25.6833 24.3254 26.3304 24.6514L36.815 29.8937C37.4632 30.2177 37.7252 31.0046 37.4017 31.6522C37.1723 32.1114 36.7095 32.3772 36.2283 32.3772Z" fill="#707080"/>
<path d="M48.8116 32.3772C48.3304 32.3772 47.8676 32.1114 47.6382 31.6522C47.3147 31.0046 47.5768 30.2178 48.2249 29.8937L58.7095 24.6514C59.3566 24.3289 60.1439 24.5915 60.4676 25.2376C60.7911 25.8852 60.529 26.672 59.8809 26.9961L49.3963 32.2384C49.2089 32.3321 49.0083 32.3772 48.8116 32.3772Z" fill="#707080"/>
<path d="M58.2457 52.2974C57.9907 52.2974 57.7338 52.2236 57.5074 52.0696C53.8152 49.5488 48.3518 48.1036 42.5198 48.1036C36.6878 48.1036 31.2243 49.5488 27.5322 52.0696C26.9343 52.4776 26.1193 52.3235 25.7107 51.7255C25.3022 51.1275 25.4568 50.3121 26.0538 49.904C30.1718 47.094 36.1739 45.4823 42.5199 45.4823C48.866 45.4823 54.868 47.094 58.9861 49.904C59.5831 50.3121 59.7376 51.1275 59.3292 51.7255C59.075 52.0973 58.6644 52.2974 58.2457 52.2974Z" fill="#707080"/>
<path d="M33.3364 58.7389L39.4957 43.7993C39.6752 43.3638 39.1111 43.0088 38.7961 43.359L27.9687 55.3959C27.3462 56.0375 26.339 56.2087 25.5962 55.7114C24.325 54.8603 22.6348 54.6478 21.0465 55.4145C19.643 56.092 18.6904 57.5161 18.5487 59.0682C18.4649 59.9863 18.6441 60.8006 18.9958 61.4976C19.3226 62.1453 19.2687 63.2385 18.9607 63.8953C18.2516 65.4069 18.1266 67.2074 18.8101 68.9504C19.8177 71.5201 22.4863 73.179 25.2365 72.9453C27.1021 72.7867 28.6613 71.8778 29.703 70.573C30.1556 70.0061 31.1122 69.4739 31.8376 69.4802C32.6183 69.4871 33.4279 69.2874 34.2141 68.8059C35.5431 67.992 36.3986 66.5076 36.385 64.9491C36.3695 63.1855 35.431 61.7639 34.1053 61.0006C33.3307 60.5547 33.0365 59.581 33.3364 58.7389Z" fill="white"/>
<path d="M21.9513 67.8831C21.277 66.1631 21.3896 64.3874 22.0738 62.8884C22.4313 62.1052 22.5248 61.1988 22.137 60.4302C21.812 59.786 21.6342 59.0416 21.6754 58.2077C21.7377 56.9416 22.348 55.7609 23.2921 54.9544C22.68 54.9247 22.0476 55.012 21.4231 55.2517C19.7682 55.8871 18.6216 57.5046 18.5343 59.2752C18.4932 60.1091 18.6711 60.8535 18.996 61.4977C19.3837 62.2663 19.2903 63.1728 18.9329 63.9559C18.2487 65.4549 18.1359 67.2306 18.8104 68.9506C19.8179 71.5203 22.4865 73.1792 25.2368 72.9454C26.3879 72.8475 27.4224 72.4639 28.2907 71.8779C25.5716 72.0697 22.9482 70.4255 21.9513 67.8831Z" fill="#F2F2F2"/>
<path d="M51.7079 58.7198L45.5448 43.7971C45.365 43.3618 45.9287 43.0064 46.244 43.3563L57.0755 55.3769C57.698 56.0186 58.7051 56.1897 59.4479 55.6924C60.719 54.8414 62.4093 54.6289 63.9976 55.3956C65.4011 56.0731 66.3537 57.4972 66.4954 59.0493C66.5792 59.9674 66.3999 60.7817 66.0482 61.4787C65.7214 62.1263 65.7754 63.2196 66.0834 63.8764C66.7925 65.388 66.9174 67.1884 66.234 68.9315C65.2264 71.5012 62.5578 73.1601 59.8076 72.9264C57.942 72.7678 56.3828 71.8589 55.341 70.5541C54.8884 69.9872 53.9319 69.455 53.2064 69.4613C52.4258 69.4682 51.6161 69.2685 50.83 68.787C49.5009 67.9731 48.6455 66.4886 48.659 64.9302C48.6745 63.1665 49.613 61.745 50.9388 60.9817C51.7136 60.5356 52.0078 59.562 51.7079 58.7198Z" fill="white"/>
<path d="M60.8558 69.8371C59.0151 69.6807 57.4725 68.7937 56.4312 67.5167C55.887 66.8495 55.1156 66.3645 54.2547 66.372C53.5331 66.3784 52.787 66.2082 52.0575 65.8025C50.6764 65.0342 49.7828 63.5643 49.7191 62.0038C49.1503 62.6823 48.7697 63.5409 48.6794 64.5205C48.5168 66.2858 49.4598 68.0299 51.009 68.8917C51.7385 69.2976 52.4847 69.4676 53.2062 69.4613C54.0671 69.4538 54.8386 69.9388 55.3827 70.6058C56.4241 71.8828 57.9665 72.7698 59.8073 72.9262C62.5576 73.1599 65.2263 71.501 66.2339 68.9313C66.4881 68.2832 66.6299 67.6272 66.672 66.9811C65.4144 68.8802 63.1703 70.0339 60.8558 69.8371Z" fill="#F2F2F2"/>
</g>
<defs>
<filter id="filter0_d" x="0.0177002" y="0" width="85.0044" height="85.0044" filterUnits="userSpaceOnUse" color-interpolation-filters="sRGB">
<feFlood flood-opacity="0" result="BackgroundImageFix"/>
<feColorMatrix in="SourceAlpha" type="matrix" values="0 0 0 0 0 0 0 0 0 0 0 0 0 0 0 0 0 0 127 0"/>
<feOffset dy="2"/>
<feGaussianBlur stdDeviation="5"/>
<feColorMatrix type="matrix" values="0 0 0 0 0.4 0 0 0 0 0.4 0 0 0 0 0.4 0 0 0 0.04 0"/>
<feBlend mode="normal" in2="BackgroundImageFix" result="effect1_dropShadow"/>
<feBlend mode="normal" in="SourceGraphic" in2="effect1_dropShadow" result="shape"/>
</filter>
<clipPath id="clip0">
<rect width="65.0044" height="65.0044" fill="white" transform="translate(10.0177 8)"/>
</clipPath>
</defs>
</svg>
