<svg width="16" height="16" viewBox="0 0 16 16" fill="none" xmlns="http://www.w3.org/2000/svg">
<g clip-path="url(#clip0)">
<path opacity="0.4" d="M7.75 10C7.21974 9.99942 6.71137 9.78852 6.33643 9.41357C5.96148 9.03863 5.75058 8.53026 5.75 8C5.75 7.09531 6.35781 6.33781 7.18375 6.09156L8.90625 4.36844L8.84 4.16906C8.49156 4.07 8.13062 4 7.75 4C6.95887 4 6.18552 4.2346 5.52772 4.67412C4.86992 5.11365 4.35723 5.73836 4.05448 6.46927C3.75173 7.20017 3.67252 8.00444 3.82686 8.78036C3.9812 9.55628 4.36216 10.269 4.92157 10.8284C5.48098 11.3878 6.19371 11.7688 6.96964 11.9231C7.74556 12.0775 8.54983 11.9983 9.28073 11.6955C10.0116 11.3928 10.6364 10.8801 11.0759 10.2223C11.5154 9.56448 11.75 8.79113 11.75 8C11.75 7.61938 11.68 7.25844 11.5806 6.90969L11.3816 6.84375L9.65844 8.56688C9.53727 8.97952 9.28601 9.34198 8.94211 9.60023C8.59821 9.85847 8.18007 9.9987 7.75 10ZM15.1384 5.65938L14.0291 6.76875C13.8594 6.93687 13.6549 7.06564 13.43 7.14594C13.9269 10.3081 11.7662 13.2741 8.60406 13.7709C5.44187 14.2678 2.47594 12.1069 1.97906 8.945C1.48219 5.78312 3.64312 2.81688 6.805 2.32C7.40429 2.22599 8.01462 2.22651 8.61375 2.32156C8.69088 2.0969 8.81632 1.89188 8.98125 1.72094L10.0906 0.611563C9.33356 0.371772 8.54413 0.249826 7.75 0.25C3.46875 0.25 0 3.71875 0 8C0 12.2812 3.46875 15.75 7.75 15.75C12.0312 15.75 15.5 12.2812 15.5 8C15.5002 7.20587 15.3782 6.41644 15.1384 5.65938Z" fill="black"/>
<path d="M9.6875 2.42815L11.6775 0.437524C11.7549 0.360384 11.8507 0.304254 11.9558 0.274441C12.0609 0.244627 12.1719 0.242114 12.2783 0.26714C12.3846 0.292167 12.4828 0.343905 12.5636 0.417463C12.6444 0.491022 12.7051 0.583971 12.74 0.687524L13.3197 2.42658L15.0591 3.00627C15.1626 3.04114 15.2556 3.10184 15.3291 3.18264C15.4027 3.26343 15.4544 3.36166 15.4795 3.46802C15.5045 3.57438 15.502 3.68536 15.4721 3.79048C15.4423 3.8956 15.3862 3.99138 15.3091 4.06877L13.3219 6.06251C13.2377 6.14678 13.1318 6.206 13.0159 6.23359C12.9 6.26118 12.7788 6.25605 12.6656 6.21876L11.1125 5.70095L8.28125 8.53126C8.14036 8.67216 7.94926 8.75131 7.75 8.75131C7.55075 8.75131 7.35965 8.67216 7.21875 8.53126C7.07786 8.39036 6.9987 8.19927 6.9987 8.00001C6.9987 7.80075 7.07786 7.60966 7.21875 7.46876L10.0497 4.63783L9.53125 3.08471C9.49391 2.97154 9.48875 2.85022 9.51634 2.73428C9.54393 2.61835 9.60319 2.51236 9.6875 2.42815Z" fill="black"/>
</g>
<defs>
<clipPath id="clip0">
<rect width="15.5" height="16" fill="white"/>
</clipPath>
</defs>
</svg>
