<svg width="13" height="14" viewBox="0 0 13 14" fill="none" xmlns="http://www.w3.org/2000/svg">
<path d="M6.65315 13.3578C7.28024 13.3578 7.78847 12.8495 7.78847 12.2224L7.78847 4.42213L10.4121 6.91483C10.8671 7.34679 11.5856 7.32814 12.0175 6.87359C12.226 6.65405 12.3297 6.37289 12.3297 6.09173C12.3297 5.79149 12.2109 5.49168 11.9767 5.26862L7.43544 0.954416C6.9973 0.537981 6.30901 0.537981 5.87086 0.954416L1.32959 5.26862C0.876345 5.70101 0.858606 6.42034 1.28878 6.87359C1.72074 7.32814 2.43917 7.34679 2.89417 6.91483L5.51783 4.42213L5.51783 12.2224C5.51783 12.8495 6.02606 13.3578 6.65315 13.3578Z" fill="#43D48F"/>
</svg>
