<svg width="19" height="16" viewBox="0 0 19 16" fill="none" xmlns="http://www.w3.org/2000/svg">
<g clip-path="url(#clip0)">
<path opacity="0.4" d="M18.6213 1.88126L17.0963 0.356257C16.8672 0.128101 16.5571 0 16.2338 0C15.9105 0 15.6004 0.128101 15.3713 0.356257L14.265 1.46251C14.208 1.51978 14.176 1.59731 14.176 1.67813C14.176 1.75895 14.208 1.83648 14.265 1.89376L17.0838 4.71251C17.1411 4.76953 17.2186 4.80154 17.2994 4.80154C17.3802 4.80154 17.4578 4.76953 17.515 4.71251L18.6213 3.60626C18.8494 3.37719 18.9775 3.06706 18.9775 2.74376C18.9775 2.42045 18.8494 2.11032 18.6213 1.88126ZM14.3369 9.30001L13.0869 10.55C13.0175 10.6211 12.9783 10.7163 12.9775 10.8156V13.9969H2.97754V3.99688H10.1588C10.2581 3.99612 10.3533 3.95692 10.4244 3.88751L11.6744 2.63751C11.727 2.58506 11.7629 2.51816 11.7775 2.44529C11.792 2.37243 11.7846 2.29689 11.7561 2.22825C11.7277 2.15961 11.6794 2.10098 11.6176 2.05979C11.5558 2.01859 11.4831 1.9967 11.4088 1.99688H2.47754C2.07971 1.99688 1.69818 2.15492 1.41688 2.43622C1.13557 2.71753 0.977539 3.09906 0.977539 3.49688L0.977539 14.4969C0.977539 14.8947 1.13557 15.2762 1.41688 15.5575C1.69818 15.8388 2.07971 15.9969 2.47754 15.9969H13.4775C13.8754 15.9969 14.2569 15.8388 14.5382 15.5575C14.8195 15.2762 14.9775 14.8947 14.9775 14.4969V9.56563C14.9777 9.49133 14.9558 9.41865 14.9146 9.35681C14.8734 9.29497 14.8148 9.24677 14.7462 9.21831C14.6775 9.18985 14.602 9.18242 14.5291 9.19697C14.4563 9.21151 14.3894 9.24738 14.3369 9.30001Z" fill="#6A6A72"/>
<path d="M16.3775 5.41559C16.4346 5.47287 16.4666 5.5504 16.4666 5.63122C16.4666 5.71204 16.4346 5.78957 16.3775 5.84684L9.55254 12.6718L6.65254 12.9937C6.56183 13.0039 6.46999 12.9935 6.38384 12.9634C6.29769 12.9332 6.21944 12.884 6.15489 12.8195C6.09035 12.755 6.04117 12.6767 6.01101 12.5905C5.98085 12.5044 5.97048 12.4126 5.98067 12.3218L6.30254 9.42184L13.1275 2.59684C13.1848 2.53982 13.2623 2.50781 13.3432 2.50781C13.424 2.50781 13.5015 2.53982 13.5588 2.59684L16.3775 5.41559Z" fill="#6A6A72"/>
</g>
<defs>
<clipPath id="clip0">
<rect width="18" height="16" fill="white" transform="translate(0.977539)"/>
</clipPath>
</defs>
</svg>
